<?xml version="1.0" encoding="UTF-8"?>
<svg width="142px" height="45px" viewBox="0 0 142 45" version="1.1" xmlns="http://www.w3.org/2000/svg" xmlns:xlink="http://www.w3.org/1999/xlink">
    <!-- Generator: Sketch 42 (36781) - http://www.bohemiancoding.com/sketch -->
    <title>TinkoffBank_simple_logo (1)@svg</title>
    <desc>Created with Sketch.</desc>
    <defs></defs>
    <g id="Page-1" stroke="none" stroke-width="1" fill="none" fill-rule="evenodd">
        <g id="TinkoffBank_simple_logo-(1)" fill-rule="nonzero">
            <g id="Header/Footer-Adaptive-Template">
                <g id="Index-1440">
                    <g id="Header">
                        <g id="TinkoffBank_simple_logo">
                            <path d="M20.0515472,6.91262264 L20.030195,6.91750314 L20.0484969,6.89371069 L20.0515472,6.91262264 L20.0515472,6.91262264 Z M48.7818491,21.1545409 L49.421805,19.1053396 L47.3036667,19.1724465 C47.1249182,19.1724465 45.8242642,19.1352327 44.562044,18.2201384 C44.6566038,18.2280692 44.7499434,18.2421006 44.8469434,18.2421006 C46.1457673,18.2421006 47.403717,17.46 47.9070189,16.3405346 L48.8178428,14.3193962 C47.6745849,14.3346478 46.6301572,14.1900629 46.6301572,14.1900629 C46.6216164,14.1894528 45.7980314,14.0826918 44.8463333,13.1096415 C44.163673,12.4129497 43.3187358,12.0438616 42.4036415,12.0438616 C42.0028302,12.0438616 41.6447233,12.1164591 41.3366415,12.2140692 C41.3848365,12.0499623 41.4293711,11.8840252 41.4568239,11.7125975 C41.7472138,9.82079245 40.5307484,8.37860377 40.5307484,8.3798239 L38.9366541,6.4068805 L37.9489623,8.72450943 C37.9459119,8.73183019 37.6957862,9.27539623 37.2504403,9.54016352 C37.1162264,8.85872327 36.7849623,8.09309434 36.0785094,7.36101887 C34.745522,5.98166667 33.1233648,5.77485535 32.2747673,5.77485535 C31.8812767,5.77485535 31.6000377,5.81816981 31.5323208,5.82915094 L29.6094025,6.20738994 C29.721044,5.77790566 29.9571384,5.02874843 30.3890629,4.35584906 L31.4499623,2.70318868 L28.780327,3.007 L27.9292893,1.20060377 L26.2827296,2.04981132 L24.7594025,0.545396226 L23.241566,2.04981132 L21.5901258,1.20060377 L20.7415283,3.007 L18.0725031,2.70196855 L19.1352327,4.35645912 C19.5677673,5.02874843 19.8032516,5.77607547 19.9130629,6.20433962 L18.0779937,5.84257233 L18.0151572,5.83281132 C17.9230377,5.81816981 17.644239,5.77485535 17.2489182,5.77485535 C16.4009308,5.77485535 14.7787736,5.98166667 13.4488365,7.36040881 C12.7411635,8.09187421 12.4092893,8.85872327 12.2738553,9.54016352 C11.8309497,9.27783648 11.5832642,8.74281132 11.5832642,8.74281132 L10.5937421,6.41176101 L8.97585535,8.39690566 C8.77758491,8.65252201 7.8027044,10.0086918 8.0674717,11.7150377 C8.09492453,11.8852453 8.13945912,12.0499623 8.18704403,12.2140692 C7.88018239,12.1158491 7.52207547,12.0438616 7.12187421,12.0438616 C6.20616981,12.0438616 5.3612327,12.4129497 4.6773522,13.1096415 C3.72809434,14.0784214 2.91,14.1882327 2.91671069,14.1882327 C2.91671069,14.1882327 2.05042138,14.3444088 0.71072327,14.3193962 L1.61666667,16.3405346 C2.12118868,17.46 3.37974843,18.2421006 4.67613208,18.2421006 C4.77374214,18.2421006 4.86708176,18.2280692 4.96286164,18.2201384 C3.70369182,19.1352327 2.40303774,19.1724465 2.24564151,19.1730566 L0.0890691824,19.1053396 L0.743056604,21.1539308 C1.0718805,22.2099497 2.16999371,23.959 4.27349057,24.1475094 C4.04532704,25.1065283 3.53775472,26.1820692 2.42377987,26.6444969 L0.816264151,27.3064151 L1.69292453,28.8327925 C2.18707547,29.6557673 3.34863522,30.6184465 5.0012956,30.6184465 C5.35879245,30.6172264 5.70408805,30.5812327 6.03718239,30.5104654 C6.12198113,30.8862642 6.22813208,31.263283 6.35380503,31.6372516 C6.84551572,33.1026226 6.42152201,34.124478 6.41725157,34.1354591 L5.62355975,35.7972704 L7.39457233,36.2639686 C7.41653459,36.2706792 7.95155975,36.4183145 8.62140881,36.4183145 C8.92522013,36.4183145 9.21622013,36.3865912 9.48769811,36.3213145 C9.69328931,36.2731195 9.89155975,36.209673 10.0818994,36.132195 C10.311283,36.5433774 10.5894717,36.918566 10.9140252,37.2547107 C12.0487421,38.4193208 13.657478,39.0092516 15.694478,39.0092516 L15.7005786,39.0092516 L17.1549686,38.9903396 L14.1504088,40.2397484 L16.431434,41.3421321 C17.2605094,41.7459937 18.2427107,42.223673 19.2438239,42.5891006 L18.9589245,43.3681509 L19.7446855,43.7268679 C19.8148428,43.7585912 21.3271887,44.4345409 23.8400377,44.5785157 C23.8400377,44.5785157 24.4464403,44.6065786 24.7807547,44.6065786 C25.1144591,44.6065786 25.7141509,44.5766855 25.7141509,44.5766855 C28.2105283,44.4290503 29.710673,43.7585912 29.7808302,43.7268679 L30.5690314,43.3675409 L30.2816918,42.5872704 C31.3102579,42.2108616 32.329673,41.7142704 33.1239748,41.3262704 L35.3629057,40.2385283 L32.3681069,38.9903396 L33.8285975,39.0092516 C35.8680377,39.0092516 37.4767736,38.4187107 38.6096604,37.2528805 C38.9329937,36.9197862 39.2105723,36.5452075 39.4411761,36.132195 C39.6321258,36.209673 39.8316164,36.2731195 40.0378176,36.3225346 C40.3086855,36.3865912 40.5996855,36.4183145 40.9028868,36.4183145 C41.5611447,36.4183145 42.1022704,36.2725094 42.1163019,36.2676289 L43.8952453,35.7972704 L43.1204654,34.1659623 C43.1021635,34.124478 42.6781698,33.1026226 43.1698805,31.6360314 C43.2949434,31.2620629 43.4004843,30.8856541 43.4865031,30.5104654 C43.8202075,30.5812327 44.1685535,30.6172264 44.5291006,30.6184465 C46.6350377,30.6184465 47.6446918,29.1372138 47.8399119,28.8157107 L48.7074214,27.305195 L47.1011258,26.645717 C45.9841006,26.1820692 45.4777484,25.1071384 45.2514151,24.1487296 C47.3274591,23.9681509 48.4408239,22.2172704 48.7818491,21.1545409 L48.7818491,21.1545409 Z" id="Fill-1" fill="#FFFFFF"></path>
                            <path d="M24.7600126,6.82111321 C23.0585472,6.8229434 21.7822956,7.37993082 21.505327,8.03635849 L24.7600126,9.32115094 L28.0159182,8.03635849 C27.7401698,7.37993082 26.4639182,6.8229434 24.7600126,6.82111321" id="Fill-2" fill="#FFFFFF"></path>
                            <path d="M24.7941761,40.8247987 L24.7288994,40.8247987 C23.6978931,40.8315094 22.2770566,40.6204277 21.5943962,40.4209371 L20.7708113,42.6470566 C21.3131572,42.8404465 23.1518868,43.2107547 24.763673,43.2107547 C26.3711887,43.2107547 28.2105283,42.8404465 28.7522642,42.6470566 L27.9305094,40.4209371 C27.2441887,40.6204277 25.8251824,40.8315094 24.7941761,40.8247987" id="Fill-3" fill="#FFFFFF"></path>
                            <path d="M31.0223082,38.6090503 C30.409805,38.955566 29.042044,39.4765597 28.2471321,39.7181447 L28.9145409,41.5574843 C30.1450377,41.2213396 31.1614025,40.8290692 31.9996289,40.4081258 L30.613566,39.9475283 L31.0223082,38.6090503" id="Fill-4" fill="#FFFFFF"></path>
                            <path d="M18.5007673,38.6090503 L18.9107296,39.9475283 L17.5234465,40.4081258 C18.3610629,40.8290692 19.3810881,41.2213396 20.6073145,41.5574843 L21.2759434,39.7181447 C20.4822516,39.4765597 19.1126604,38.955566 18.5007673,38.6090503" id="Fill-5" fill="#FFFFFF"></path>
                            <path d="M24.7600126,4.69199371 C26.0429748,4.69199371 27.3003145,4.99885535 28.2678742,5.53754088 C28.3563333,5.24166038 28.4801761,4.88172327 28.6479434,4.50409434 L28.2819057,4.54801887 L27.8981761,4.58828302 L27.7358994,4.23871698 L27.2460189,3.2058805 L26.354717,3.67013836 L26.0075912,3.84644654 L25.7294025,3.57313836 L24.7600126,2.6141195 L23.7924528,3.57313836 L23.5160943,3.84644654 L23.1689686,3.67013836 L22.2721761,3.2058805 L21.7896164,4.23871698 L21.6236792,4.58828302 L21.2405597,4.54801887 L20.8757421,4.50409434 C21.0435094,4.88172327 21.1661321,5.24166038 21.2558113,5.53754088 C22.2270314,4.99885535 23.4831509,4.69199371 24.7600126,4.69199371" id="Fill-6" fill="#FFFFFF"></path>
                            <path d="M44.3436415,16.6364151 C44.5101887,16.693761 44.6791761,16.7193836 44.8469434,16.7193836 C45.5729182,16.7193836 46.2738805,16.2496352 46.5148553,15.7133899 C46.5148553,15.7133899 45.1855283,15.6328616 43.7543208,14.1803019 C43.2986038,13.7099434 42.8166541,13.5690189 42.4030314,13.5690189 C41.7606352,13.5690189 41.2786855,13.9076038 41.2786855,13.9076038 C43.0069937,14.8281887 43.3596101,16.3039308 44.3436415,16.6364151" id="Fill-7" fill="#FFFFFF"></path>
                            <path d="M4.67552201,16.7193836 C4.84328931,16.7193836 5.01288679,16.693761 5.17577358,16.635805 C6.16224528,16.3039308 6.51791195,14.8281887 8.24377987,13.9082138 C8.24377987,13.9082138 7.76061006,13.5690189 7.12187421,13.5690189 C6.70581132,13.5690189 6.2244717,13.7099434 5.76692453,14.1809119 C4.33815723,15.6328616 3.00883019,15.714 3.00883019,15.714 C3.24736478,16.2496352 3.95015723,16.7193836 4.67552201,16.7193836" id="Fill-8" fill="#FFFFFF"></path>
                            <path d="M43.8220377,27.2344277 C42.4853899,26.5749497 41.6404528,24.8252893 41.4366918,24.1950943 C41.2146289,27.6651321 39.5210943,30.0724403 37.5414403,32.3906792 C36.5140943,33.5925031 36.1553774,34.7607736 36.1553774,34.7607736 C36.1553774,34.7607736 36.3536478,33.4369371 37.2418994,32.359566 C39.0891698,30.1407673 40.8449308,27.3771824 40.9754843,24.1828931 C41.0651635,21.9525031 40.4923145,20.1448868 39.5973522,18.6545031 C40.0982138,20.2065031 40.0268365,22.1068491 38.3278113,23.8809119 C38.3278113,23.8809119 41.7112201,19.827044 36.9807925,15.6706855 C35.0883774,14.0887925 33.0159937,13.1120818 31.9502138,12.4202704 C35.802761,13.677 37.684195,12.2933774 37.684195,12.2933774 C36.4543082,13.3597673 34.861434,13.3414654 33.8731321,13.1877296 C34.1415597,13.318283 34.4203585,13.4549371 34.7198994,13.6159937 C37.9684843,15.3802956 40.8876352,18.2835849 41.3854465,22.3038994 L41.3854465,22.2733962 C42.1407044,26.2211132 43.8220377,27.2344277 43.8220377,27.2344277 M44.8115597,22.6345535 C44.8414528,22.6363836 44.8670755,22.6363836 44.8975786,22.6363836 C46.7082453,22.6363836 47.3219686,20.6969937 47.3219686,20.6969937 L47.2865849,20.6969937 C46.9541006,20.6969937 44.2618931,20.6189057 42.3591069,18.2000063 C41.1066478,16.6095723 40.0793019,15.2113082 38.052673,14.6610314 L37.8525723,14.6256478 L37.8092579,14.4224969 C37.7531321,14.113195 37.966044,13.822195 38.4473836,13.5092327 C41.2457421,11.6772138 39.3447862,9.34006289 39.3447862,9.34006289 C39.3447862,9.34006289 38.5462138,11.2086855 36.7587296,11.2086855 C36.7154151,11.2086855 36.6702704,11.2062453 36.6257358,11.2062453 C36.423195,11.1958742 36.2267547,11.1885535 36.0297044,11.1464591 L35.7002704,11.0824025 C35.7002704,11.0824025 36.210283,9.69572956 34.9797862,8.42313836 C34.0531006,7.46228931 32.9257044,7.29879245 32.2747673,7.29879245 C31.9465535,7.29879245 31.738522,7.34088679 31.738522,7.34088679 C32.3565157,8.14861006 32.8030818,9.4895283 32.0899182,10.3167736 C31.4731447,11.0274969 29.9668994,11.0616604 29.9668994,12.1213396 C29.9668994,12.5703459 30.3860126,13.0937799 31.1388302,13.5641384 C33.4027736,14.9898553 35.6502453,16.8822704 36.5860818,19.4176918 C37.7531321,22.5796478 36.4372264,24.6794843 34.5594528,25.8831384 C34.5594528,25.8831384 35.1493836,26.4254843 36.0022516,26.4950314 C36.1767296,26.5115031 36.346327,26.519434 36.5043333,26.519434 C38.3076792,26.519434 39.2404654,25.6738868 39.2404654,25.6738868 C39.2404654,25.6738868 39.0861195,26.8421572 38.1484528,27.9268491 C37.2821635,28.9279623 36.1468365,29.5185031 34.4130377,29.5429057 C34.4130377,29.5429057 34.3581321,30.3469686 35.1255912,31.0436604 C35.6173019,31.4829057 36.7507987,31.6256604 36.7507987,31.6256604 C36.7507987,31.6256604 34.6271698,32.0563648 34.3929057,35.1933082 C34.2654025,36.8929434 33.8310377,37.4834843 33.8310377,37.4834843 L33.8688616,37.4834843 C38.7975597,37.4834843 38.6718868,33.2563585 38.6718868,33.2563585 C38.6718868,33.2563585 39.0141321,34.5082075 40.3892138,34.8345912 C40.5551509,34.8779057 40.7326792,34.8949874 40.9016667,34.8949874 C41.3439623,34.8949874 41.7289119,34.7906667 41.7289119,34.7906667 C41.7289119,34.7906667 41.0084277,33.2722201 41.7228113,31.1479811 C42.3151824,29.3848994 42.2200126,28.0787547 42.2200126,28.0787547 C42.2200126,28.0787547 42.8831509,29.0829182 44.5303208,29.0920692 L44.5467925,29.0920692 C45.9176038,29.0920692 46.5148553,28.0531321 46.5148553,28.0531321 C43.2290566,26.6884214 43.5536101,22.2862075 43.5536101,22.2862075 C43.5536101,22.2862075 43.980044,22.6046604 44.8115597,22.6345535" id="Fill-9" fill="#FFFFFF"></path>
                            <path d="M11.9804151,32.3906792 C10.000761,30.0724403 8.30783648,27.6651321 8.0839434,24.1950943 C7.87957233,24.8252893 7.03768553,26.5749497 5.7016478,27.2344277 C5.7016478,27.2344277 7.38115094,26.2211132 8.13579874,22.2733962 L8.13579874,22.3038994 C8.63544025,18.284195 11.5539811,15.3802956 14.8031761,13.6166038 C15.1008868,13.454327 15.3821258,13.318283 15.6487233,13.1883396 C14.6610314,13.3414654 13.0681572,13.3597673 11.8388805,12.2933774 C11.8388805,12.2933774 13.7203145,13.677 17.5716415,12.4202704 C16.5058616,13.1126918 14.4353082,14.0887925 12.5428931,15.6706855 C7.81124528,19.827044 11.1952642,23.881522 11.1952642,23.881522 C9.49379874,22.1068491 9.4254717,20.2071132 9.92572327,18.6545031 C9.02954088,20.1448868 8.45669182,21.9525031 8.54881132,24.1828931 C8.67814465,27.3771824 10.4332956,30.1401572 12.2769057,32.3601761 C13.1694277,33.4369371 13.3701384,34.7601635 13.3701384,34.7601635 C13.3701384,34.7601635 13.0071509,33.5925031 11.9804151,32.3906792 M12.7722767,31.6256604 C12.7722767,31.6256604 13.9063836,31.4835157 14.3987044,31.0436604 C15.1655535,30.3469686 15.1106478,29.5429057 15.1106478,29.5429057 C13.376239,29.5185031 12.241522,28.9279623 11.3703522,27.9274591 C10.4381761,26.8421572 10.2832201,25.6738868 10.2832201,25.6738868 C10.2832201,25.6738868 11.2153962,26.519434 13.0163019,26.519434 C13.1779686,26.519434 13.3463459,26.5115031 13.5202138,26.4950314 C14.3749119,26.4254843 14.9660629,25.8837484 14.9660629,25.8837484 C13.0864591,24.6794843 11.7699434,22.5802579 12.9363836,19.4176918 C13.8716101,16.8828805 16.1184717,14.9898553 18.3836352,13.5635283 C19.1358428,13.0937799 19.5543459,12.5703459 19.5543459,12.1213396 C19.5543459,11.0616604 18.0499308,11.0274969 17.4337673,10.3167736 C16.7206038,9.4895283 17.1671698,8.14861006 17.7839434,7.34088679 C17.7839434,7.34088679 17.5783522,7.29879245 17.2483082,7.29879245 C16.5979811,7.29879245 15.471195,7.46228931 14.5445094,8.42313836 C13.3115723,9.69572956 13.822805,11.0824025 13.822805,11.0824025 L13.4933711,11.1464591 C13.2969308,11.1879434 13.0986604,11.1958742 12.8967296,11.2068553 C12.8503648,11.2068553 12.8094906,11.2086855 12.7661761,11.2086855 C10.9738113,11.2086855 10.1795094,9.34067296 10.1795094,9.34067296 C10.1795094,9.34067296 8.27977358,11.6772138 11.0769119,13.5092327 C11.5582516,13.822195 11.7699434,14.113195 11.7138176,14.4224969 L11.6705031,14.6250377 L11.4673522,14.6610314 C9.44316352,15.2113082 8.41520755,16.6095723 7.1615283,18.2000063 C5.25996226,20.6182956 2.57080503,20.6969937 2.2358805,20.6969937 L2.19927673,20.6969937 C2.19927673,20.6969937 2.813,22.6363836 4.62488679,22.6363836 C4.65355975,22.6363836 4.68040252,22.6363836 4.71090566,22.6345535 C5.54364151,22.6046604 5.97068553,22.2862075 5.97068553,22.2862075 C5.97068553,22.2862075 6.29279874,26.6884214 3.00822013,28.052522 C3.00822013,28.052522 3.60669182,29.0926792 4.97689308,29.0926792 L4.99336478,29.0926792 C6.64114465,29.0829182 7.30367296,28.0787547 7.30367296,28.0787547 C7.30367296,28.0787547 7.20789308,29.3855094 7.79843396,31.1479811 C8.51281761,33.2728302 7.79599371,34.7912767 7.79599371,34.7912767 C7.79599371,34.7912767 8.17911321,34.8949874 8.62140881,34.8949874 C8.79283648,34.8949874 8.96853459,34.8779057 9.13325157,34.8345912 C10.5071132,34.5082075 10.8505786,33.2563585 10.8505786,33.2563585 C10.8505786,33.2563585 10.7249057,37.4834843 15.6542138,37.4834843 L15.6895975,37.4834843 C15.6895975,37.4834843 15.258283,36.8929434 15.1313899,35.1933082 C14.8977358,32.0563648 12.7722767,31.6256604 12.7722767,31.6256604" id="Fill-10" fill="#FFFFFF"></path>
                            <path d="M23.648478,16.0489245 L25.9715975,16.0489245 L25.9715975,16.8462767 C25.6982893,16.5113522 25.1663145,16.5796792 25.1663145,16.5796792 L25.1663145,17.7290377 C25.1663145,17.7290377 25.1864465,18.294566 25.384717,18.5392013 L24.2347484,18.5392013 C24.4360692,18.294566 24.453761,17.7290377 24.453761,17.7290377 L24.453761,16.5796792 C24.453761,16.5796792 23.9236164,16.5113522 23.648478,16.8462767 L23.648478,16.0489245 L23.648478,16.0489245 Z M21.1161069,16.1684969 C21.1972453,16.2551258 21.2765535,16.3490755 21.3534214,16.4442453 C21.3717233,16.4662075 21.388195,16.4857296 21.4064969,16.5113522 C21.4772642,16.6053019 21.5486415,16.7053522 21.6175786,16.8072327 C21.6328302,16.8273648 21.6474717,16.8517673 21.6639434,16.8749497 C21.7463019,17.0000126 21.8243899,17.1287358 21.9018679,17.2617296 C22.6132013,18.4891761 23.7503585,19.2224717 24.7600126,19.2243019 C25.7708868,19.2224717 26.9068239,18.4891761 27.6199874,17.2617296 C27.6986855,17.1250755 27.7786038,16.9933019 27.8615723,16.8694591 C27.8731635,16.8517673 27.8865849,16.8334654 27.897566,16.8151635 C27.9683333,16.7096226 28.0415409,16.6071321 28.1184088,16.5076918 C28.1348805,16.4857296 28.1501321,16.4662075 28.1647736,16.4479057 C28.2440818,16.3490755 28.3258302,16.2539057 28.4094088,16.1654465 C28.4234403,16.1514151 28.4356415,16.1379937 28.4490629,16.1264025 C28.8114403,15.7554843 29.2427547,15.4730252 29.808283,15.3168491 L29.556327,15.170434 L29.5422956,15.170434 L28.5417925,14.589044 L27.5138365,14.0003333 L24.7673333,15.4955975 L24.7600126,15.4894969 L24.7551321,15.4955975 L22.0080189,14.0003333 L20.980673,14.589044 L19.9783396,15.170434 L19.9667484,15.170434 L19.7129623,15.3168491 C20.2784906,15.4730252 20.7085849,15.752434 21.0721824,16.1239623 C21.088044,16.1379937 21.0990252,16.1544654 21.1161069,16.1684969 L21.1161069,16.1684969 Z" id="Fill-11" fill="#FFFFFF"></path>
                            <path d="M23.8851824,10.9817421 L23.8851824,11.7321195 L23.7412075,11.6662327 C23.7344969,11.6607421 23.522805,11.6131572 23.154327,11.3209371 C22.5460943,10.8493585 22.5338931,10.4137736 22.5338931,10.4137736 L23.8851824,10.9817421 L23.8851824,10.9817421 Z M24.5226981,14.5024151 L24.5226981,9.8348239 L21.5516918,8.827 L22.3350126,13.3500063 L24.5226981,14.5024151 L24.5226981,14.5024151 Z" id="Fill-12" fill="#FFFFFF"></path>
                            <path d="M25.6378931,10.9817421 L26.9891824,10.4137736 C26.9891824,10.4137736 26.9775912,10.8493585 26.3669182,11.3209371 C25.9996604,11.6131572 25.7879686,11.6607421 25.7806478,11.6662327 L25.6378931,11.7321195 L25.6378931,10.9817421 L25.6378931,10.9817421 Z M27.1868428,13.3500063 L27.9677233,8.827 L24.9985472,9.8348239 L24.9985472,14.5024151 L27.1868428,13.3500063 L27.1868428,13.3500063 Z" id="Fill-13" fill="#FFFFFF"></path>
                            <path d="M20.321195,25.3224906 C20.6103648,25.4274214 20.9611509,25.4493836 21.1411195,25.4493836 C21.1478302,25.4274214 21.1575912,25.3999686 21.1661321,25.3664151 C21.1819937,25.3133396 21.1972453,25.2602642 21.2082264,25.2023082 C21.2588616,24.9436415 21.2765535,24.6514214 21.2808239,24.4623019 C21.1594214,24.386044 20.9867736,24.2518302 20.8903836,24.0505094 C20.7805723,23.8186855 20.622566,23.7100943 20.3931824,23.7100943 C20.0942516,23.7100943 19.7739686,23.8900629 19.6354843,23.9742516 C19.526283,24.6196981 20.0021321,25.2047484 20.321195,25.3224906" id="Fill-14" fill="#FFFFFF"></path>
                            <path d="M26.8927925,22.8468553 C26.3412956,23.4471572 25.2602642,24.4915849 25.2084088,24.5434403 L25.1431321,24.609327 L21.7304403,24.5556415 C21.728,24.8936164 21.6730943,25.180956 21.6200189,25.3920377 C21.611478,25.4274214 21.601717,25.4634151 21.592566,25.5000189 L25.6519245,26.2302642 C26.0740881,25.9349937 27.2362579,25.0857862 27.6883145,24.7533019 C27.3601006,24.2737925 27.3289874,23.7052138 27.402805,23.3050126 C27.1868428,23.1677484 27.0233459,23.0115723 26.8927925,22.8468553" id="Fill-15" fill="#FFFFFF"></path>
                            <path d="M27.3552201,18.7417421 C26.5688491,19.5214025 25.8148113,19.8111824 25.1413019,19.8776792 C25.0180692,19.8904906 24.8948365,19.8984214 24.7697736,19.8984214 L24.7526918,19.8984214 C24.6270189,19.8984214 24.502566,19.8904906 24.3811635,19.8776792 C24.2628113,19.8673082 24.1395786,19.8483962 24.0157358,19.8203333 C23.9718113,19.9960314 23.9156855,20.3620692 24.075522,20.7104151 C24.2182767,21.0252075 24.5080566,21.2594717 24.9308302,21.4162579 L25.0729748,21.4717736 L25.0754151,21.6248994 C25.0754151,21.670044 25.1095786,22.6632264 26.1912201,22.9389748 C26.3675283,22.7571761 26.5279748,22.5924591 26.6469371,22.4545849 C26.4260943,21.9342013 26.5420063,21.4028365 26.8628994,21.1429497 C26.8488679,21.1978553 26.7079434,22.5009497 27.7523711,22.9853396 L27.9244088,23.0670881 L27.8731635,23.2501069 C27.8560818,23.3050126 27.5077358,24.5666226 28.7730063,25.035761 L28.9968994,25.1205597 L28.8980692,25.3377421 C28.8754969,25.3859371 28.3801258,26.529805 29.5477862,27.1801321 L32.0807673,27.1801321 L32.0807673,25.1693648 C31.1803145,25.0589434 30.7990252,24.3347987 30.700195,23.8223459 C30.2810818,23.7503585 29.9577484,23.5697799 29.7350755,23.2751195 C29.2037107,22.5753774 29.6606478,21.9342013 29.6667484,21.8994277 C29.6661384,21.9049182 29.6667484,22.5869686 30.0876918,23.008522 C30.2969434,23.2110629 30.5434088,23.3690692 30.9173774,23.4044528 L31.1016164,23.4209245 L31.117478,23.609434 C31.1205283,23.6490881 31.2217987,24.5733333 32.0807673,24.7179182 L32.0789371,20.6091447 C32.0789371,19.9728491 32.2643962,19.3328931 32.4876792,18.7417421 L27.3552201,18.7417421" id="Fill-16" fill="#FFFFFF"></path>
                            <polyline id="Fill-17" fill="#FFFFFF" points="20.5371572 20.6243962 20.4682201 23.2403459 20.7659308 23.2861006 21.4931258 20.7756918 21.1240377 20.0033522 20.5371572 20.6243962"></polyline>
                            <path d="M22.1123396,30.3097547 C22.0275409,30.3073145 21.9653145,30.235327 21.970805,30.1505283 C21.9775157,30.0693899 22.0464528,30.0053333 22.1300314,30.0126541 C22.2154403,30.0157044 22.2752264,30.0907421 22.2727862,30.1706604 C22.2648553,30.2536289 22.193478,30.3170755 22.1123396,30.3097547 M28.5539937,32.6255535 C28.576566,32.6255535 28.6015786,32.6286038 28.6259811,32.6347044 C29.0786478,32.7640377 29.1927296,34.3947358 29.9864214,34.5399308 C30.0645094,34.5564025 30.1358868,34.561283 30.1993333,34.561283 C30.428717,34.561283 30.5653711,34.463673 30.7130063,34.289195 C30.7130063,34.289195 30.3134151,33.6620503 30.0150943,33.2380566 C29.6179434,32.6841195 29.3104717,32.0148805 28.5716855,32.0148805 C28.5539937,32.0148805 28.5326415,32.0148805 28.5143396,32.0173208 C28.2715346,32.029522 28.1214591,32.1484843 28.1214591,32.1484843 C27.8219182,31.9599748 27.5431195,31.8965283 27.2917736,31.8965283 C26.8293459,31.8965283 26.4694088,32.1088302 26.2888302,32.1088302 L26.2821195,32.1088302 L24.6325094,31.9459434 C24.3750629,31.9209308 24.1706918,31.661044 24.0974843,31.5597736 C24.0791824,31.5317107 24.0688113,31.5158491 24.0688113,31.5158491 C24.0688113,31.4707044 24.0688113,31.4249497 24.0663711,31.3840755 C24.0108553,30.0352264 22.9664277,29.4581069 22.5942893,29.448956 C22.5942893,29.448956 22.6382138,29.1921195 22.5381635,29.0945094 L22.173956,29.536195 L20.980673,28.9371132 L21.8323208,29.9321258 L21.1112264,30.7416792 C21.020327,30.8337987 21.0319182,30.9582516 21.0697421,31.011327 L21.3808742,31.2864654 L21.776195,31.0467107 C21.795717,31.0320692 21.8323208,31.0277987 21.8756352,31.0277987 C21.9848365,31.0277987 22.1489434,31.0558616 22.2959686,31.0558616 C22.4576352,31.0558616 22.5961195,31.0216981 22.6132013,30.8704025 C22.5637862,31.3706541 22.0995283,32.2393836 22.4039497,32.9226541 L22.630283,33.4381572 L21.1716226,33.2282956 L20.4889623,34.3807044 C20.2784906,34.764434 20.2455472,35.1792767 20.4480881,35.4056101 L20.7030943,35.724673 C20.7030943,35.724673 21.0618113,35.3452138 21.1417296,35.0950881 L21.0258176,34.9675849 C20.9282075,34.8602138 20.9330881,34.764434 20.9928742,34.6491321 L21.4211384,33.9390189 L23.1421258,34.3447107 L23.2336352,34.1897547 C23.3507673,33.9951447 23.5185346,33.9377987 23.7027736,33.9377987 C23.7790314,33.9377987 23.8565094,33.9469497 23.9376478,33.959761 C24.2573208,34.0225975 24.783195,34.1073962 25.3090692,34.1073962 C25.8855786,34.1073962 26.4584277,34.0042956 26.7640692,33.6620503 C27.3875535,34.5862956 28.6509937,34.7333208 28.5515535,35.2030692 L28.2184591,36.7867925 C28.4386918,36.7770314 28.6509937,36.763 28.8523145,36.7349371 L29.1689371,35.0877673 C29.2037107,34.9077987 29.2366541,34.667434 29.2366541,34.667434 C29.1152516,34.5429811 28.8199811,34.2818742 28.653434,33.9640314 C28.430761,33.5357673 28.5515535,33.3118742 28.3441321,32.7548868 C28.3441321,32.7548868 28.4081887,32.6255535 28.5539937,32.6255535" id="Fill-18" fill="#FFFFFF"></path>
                            <path d="M19.7617673,34.1238679 C19.7617673,34.1238679 20.3327862,33.8889937 20.3834214,33.7218365 L20.3071635,33.5314969 C20.2528679,33.407044 20.2601887,33.2728302 20.3651195,33.2002327 L20.980673,32.7737987 L22.009239,32.9720692 C22.009239,32.9720692 21.8231698,32.7384151 21.8414717,32.427283 L20.8592704,32.2192516 L19.933195,32.7835597 C19.536044,33.0800503 19.5073711,33.5656604 19.6385346,33.8536101 L19.7617673,34.1238679" id="Fill-19" fill="#FFFFFF"></path>
                            <path d="M27.0404277,36.8075346 C27.2240566,36.8002138 27.4284277,36.7971635 27.6511006,36.7971635 C27.6511006,36.7971635 28.1806352,35.2482138 28.2105283,35.1994088 C27.9140377,35.0682453 27.2972642,34.7412516 27.0593396,34.5917862 C27.2173459,34.8272704 27.5986352,35.0950881 27.5229874,35.3025094 L27.0404277,36.8075346" id="Fill-20" fill="#FFFFFF"></path>
                            <path d="M32.0807673,27.6236478 L17.4429182,27.6236478 L17.4429182,33.1294654 C17.4429182,35.3818176 19.0723962,36.7910629 21.4772642,36.7910629 C23.4855912,36.7910629 24.0157358,36.869761 24.7630629,37.6109874 C25.277956,37.0973145 25.7037799,36.9057547 26.5786101,36.8343774 L26.5993522,36.7489686 L27.0605597,35.3226415 C27.0349371,35.2909182 26.2802893,34.4337799 26.2802893,34.4337799 C25.9813585,34.5332201 25.7300126,34.5496918 25.3084591,34.5496918 C24.8747044,34.5496918 24.3866541,34.4990566 23.8552893,34.3996164 C23.8022138,34.3874151 23.7521887,34.3819245 23.7027736,34.3819245 C23.6374969,34.3819245 23.6332264,34.3874151 23.6161447,34.4197484 L23.5246352,34.570434 L23.3568679,34.8480126 L23.0408553,34.774805 L21.6358805,34.4441509 L21.4431006,34.7619937 L21.4717736,34.7961572 L21.6425912,34.9846667 L21.5669434,35.2299119 C21.4638428,35.550805 21.1283082,35.9259937 21.0258176,36.0290943 L20.6750314,36.4055031 L20.3547484,36.0010314 L20.1143836,35.6996604 C19.8618176,35.4165912 19.8032516,34.9846667 19.9453962,34.5307799 C19.9423459,34.5332201 19.9374654,34.5356604 19.9313648,34.5362704 L19.535434,34.7003774 L19.3572956,34.3129874 L19.2322327,34.0384591 C19.0168805,33.5552893 19.0961887,32.8494465 19.6769686,32.4224025 L20.8074151,31.7842767 L21.883566,31.9953585 C21.9091887,31.8922579 21.9476226,31.5225597 21.9787358,31.4286101 C21.9579937,31.4261698 21.9384717,31.4212893 21.9171195,31.4212893 L21.2972956,31.6531132 L20.6988239,31.2401006 C20.6988239,31.2401006 20.4651698,31.0149874 20.6774717,30.7898742 L21.2558113,29.9126038 L19.7886101,28.0708239 L22.0434025,28.9968994 L22.1940881,28.8114403 L22.4978994,28.4466226 L22.843805,28.7754465 C22.9414151,28.8693962 22.9975409,28.9853082 23.0249937,29.1012201 C23.6460377,29.3434151 24.7600126,30.0577987 24.8582327,31.2181384 L24.5098868,31.3572327 L24.5098868,31.3657736 C24.589805,31.4603333 24.6556918,31.4993774 24.676434,31.5030377 L26.2857799,31.661044 C26.3272642,31.6543333 26.3772893,31.6360314 26.4346352,31.6195597 C26.6353459,31.5512327 26.9348868,31.4524025 27.2911635,31.4524025 C27.5815535,31.4524025 27.8615723,31.5188994 28.1318302,31.6451824 C28.2306604,31.6073585 28.352673,31.5799057 28.4942075,31.5707547 L28.5716855,31.5689245 C29.4330943,31.5689245 29.8619686,32.2125409 30.205434,32.7268239 C30.2627799,32.8158931 30.3201258,32.8994717 30.3799119,32.9824403 C30.6800629,33.4076541 31.0735535,34.0280881 31.0894151,34.0549308 L31.2669434,34.3318994 L31.049761,34.5850755 C30.8826038,34.7784654 30.6306478,35.0060189 30.1993333,35.0060189 C30.1102642,35.0060189 30.0126541,34.9962579 29.9077233,34.9761258 C29.8162138,34.959044 29.7320252,34.9315912 29.6514969,34.8980377 C29.6399057,34.9828365 29.6216038,35.0841069 29.6063522,35.1713459 L29.3238931,36.6440377 C31.0119371,36.229195 32.0838176,34.9547736 32.0838176,33.1294654 L32.0807673,27.6236478" id="Fill-21" fill="#FFE62A"></path>
                            <path d="M17.4429182,27.1801321 L28.8279119,27.1801321 C28.2593333,26.5926415 28.2678742,25.8489748 28.4124591,25.365805 C28.246522,25.2864969 28.1098679,25.191327 27.9884654,25.0863962 C27.5431195,25.4146101 26.1851195,26.403522 25.8300629,26.6518176 L25.753805,26.7024528 L21.2857044,25.8947296 L21.1954151,25.8947296 C21.088044,25.8947296 20.9312579,25.8904591 20.7592201,25.869717 C20.7110252,26.0722579 20.5371572,26.209522 20.3382767,26.209522 C20.3150943,26.209522 20.2900818,26.2076918 20.2668994,26.2028113 C20.1503774,26.1826792 20.0484969,26.1235031 19.9807799,26.0258931 C19.9112327,25.9295031 19.8837799,25.8154214 19.9026918,25.6976792 L19.9191635,25.6012893 C19.4591761,25.2767358 19.0333522,24.5513711 19.2218616,23.7869623 L19.2401635,23.706434 L19.3054403,23.6594591 C19.3145912,23.6527484 19.3914591,23.599673 19.5073711,23.5343962 L19.1828176,23.4843711 C19.0614151,23.4630189 18.9796667,23.3495472 18.9985786,23.2299748 C19.0193208,23.1085723 19.1334025,23.0219434 19.2529748,23.0451258 L20.0265346,23.1671384 L20.0973019,20.4438176 L21.2478805,19.2261321 L21.9665346,20.738478 L21.2082264,23.3586981 L21.8921069,23.4666792 C22.0122893,23.4849811 22.0946478,23.5978428 22.0763459,23.7216855 C22.0586541,23.8314969 21.9647044,23.9053145 21.8573333,23.9053145 C21.8457421,23.9053145 21.8335409,23.9053145 21.8219497,23.9040943 L21.2661824,23.8144151 C21.2735031,23.8314969 21.2844843,23.8412579 21.291195,23.8583396 C21.3503711,23.9809623 21.4815346,24.0675912 21.5584025,24.1060252 L24.9643836,24.1603208 C25.1089686,24.0200063 25.4664654,23.6698302 25.8343333,23.299522 C24.9961069,22.9810692 24.6910755,22.2593648 24.6404403,21.7792453 C24.172522,21.5797547 23.8485786,21.2808239 23.6692201,20.8922138 C23.4508176,20.4108742 23.5282956,19.9283145 23.5868616,19.6940503 C23.1323648,19.5287233 22.6552956,19.2261321 22.1672453,18.7417421 L17.0360063,18.7417421 C17.256239,19.3328931 17.4429182,19.9728491 17.4429182,20.6091447 L17.4429182,27.1801321" id="Fill-22" fill="#FFE62A"></path>
                            <path d="M22.1300314,30.0126541 C22.0464528,30.0047233 21.9775157,30.0693899 21.970805,30.1511384 C21.9653145,30.2359371 22.0275409,30.3079245 22.1123396,30.3097547 C22.193478,30.3164654 22.2648553,30.254239 22.2727862,30.1706604 C22.2752264,30.0907421 22.2154403,30.0163145 22.1300314,30.0126541" id="Fill-23" fill="#1A1918"></path>
                            <path d="M28.9151509,41.5580943 L28.246522,39.7187547 C29.042044,39.4765597 30.409805,38.955566 31.0229182,38.6096604 L30.6141761,39.9475283 L31.9990189,40.4081258 C31.1614025,40.8284591 30.1456478,41.2213396 28.9151509,41.5580943 M24.763673,43.2113648 C23.1524969,43.2113648 21.3131572,42.8404465 20.7708113,42.6476667 L21.5943962,40.420327 C22.2770566,40.6198176 23.6978931,40.8315094 24.7288994,40.8247987 L24.7941761,40.8247987 C25.8251824,40.8315094 27.2441887,40.6198176 27.9305094,40.420327 L28.7522642,42.6476667 C28.2105283,42.8404465 26.3711887,43.2113648 24.763673,43.2113648 M17.5240566,40.4081258 L18.9113396,39.9475283 L18.5007673,38.6096604 C19.1126604,38.955566 20.4828616,39.4765597 21.2765535,39.7187547 L20.6073145,41.5580943 C19.3810881,41.2213396 18.3610629,40.8284591 17.5240566,40.4081258 M32.0612453,39.9993836 L31.2181384,39.6760503 L31.4511824,38.8042704 L31.7074088,37.8550126 C31.7074088,37.8550126 30.2133648,38.6657862 28.1074277,39.2740189 C27.5101761,39.4448365 27.0581195,39.5235346 27.0581195,39.5235346 L27.0581195,40.1702013 C27.0581195,40.1702013 25.9319434,40.3654214 24.7941761,40.3654214 L24.7288994,40.3654214 C23.5899119,40.3654214 22.465566,40.1702013 22.465566,40.1702013 L22.465566,39.5235346 C22.465566,39.5235346 22.0122893,39.4448365 21.4156478,39.2740189 C19.3103208,38.6657862 17.8181069,37.8550126 17.8181069,37.8550126 L18.0700629,38.8042704 L18.3079874,39.6760503 L17.4618302,39.9993836 L16.5235535,40.3495597 C17.5984843,40.8693333 19.0888679,41.6245912 20.4523585,41.9979497 L20.1308553,42.8770503 C20.1308553,42.8770503 21.8603836,43.6646415 24.7417107,43.6719623 L24.7417107,43.6737925 L24.7807547,43.6737925 L24.7807547,43.6719623 C27.6651321,43.6646415 29.3934403,42.8770503 29.3934403,42.8770503 L29.0701069,41.9979497 C30.4342075,41.6245912 31.9270314,40.8693333 32.9976918,40.3495597 L32.0612453,39.9993836" id="Fill-24" fill="#1A1918"></path>
                            <path d="M21.2405597,4.54801887 L21.6236792,4.58828302 L21.7896164,4.23871698 L22.2721761,3.2058805 L23.1689686,3.6695283 L23.5160943,3.8470566 L24.7600126,2.61350943 L25.7294025,3.57313836 L26.0075912,3.8470566 L26.354717,3.6695283 L27.2460189,3.2058805 L27.7358994,4.23871698 L27.8981761,4.58828302 L28.2819057,4.54801887 L28.6479434,4.50409434 C28.4801761,4.88172327 28.3563333,5.24105031 28.2678742,5.53815094 C27.3003145,4.99885535 26.0429748,4.69199371 24.7600126,4.69199371 C23.4831509,4.69199371 22.2270314,4.99885535 21.2558113,5.53815094 C21.1661321,5.24105031 21.0435094,4.88172327 20.8757421,4.50409434 L21.2405597,4.54801887 L21.2405597,4.54801887 Z M24.7600126,5.23067925 C26.4767296,5.23067925 27.8499811,5.79986792 28.6088994,6.40566038 C28.6088994,6.40566038 28.8340126,5.0488805 29.6033019,3.85193711 L28.2208994,4.00933333 L27.4973648,2.47258491 L26.1082516,3.18879874 L24.7600126,1.85703145 L23.416044,3.18879874 L22.0238805,2.47258491 L21.301566,4.00933333 L19.9191635,3.85193711 C20.6890629,5.0488805 20.913566,6.40566038 20.913566,6.40566038 C21.6773648,5.79986792 23.0463459,5.23067925 24.7600126,5.23067925 L24.7600126,5.23067925 Z" id="Fill-25" fill="#1A1918"></path>
                            <path d="M46.5154654,28.0531321 C46.5154654,28.0531321 45.9182138,29.0926792 44.5467925,29.0926792 L44.5297107,29.0926792 C42.883761,29.0829182 42.2200126,28.0787547 42.2200126,28.0787547 C42.2200126,28.0787547 42.3151824,29.3848994 41.7228113,31.1479811 C41.0084277,33.2728302 41.7289119,34.7906667 41.7289119,34.7906667 C41.7289119,34.7906667 41.3439623,34.8949874 40.9016667,34.8949874 C40.7326792,34.8949874 40.555761,34.8779057 40.3892138,34.8345912 C39.0141321,34.5082075 38.6712767,33.2563585 38.6712767,33.2563585 C38.6712767,33.2563585 38.7975597,37.4834843 33.8688616,37.4834843 L33.8304277,37.4834843 C33.8304277,37.4834843 34.2654025,36.8929434 34.3929057,35.1933082 C34.6271698,32.0563648 36.7507987,31.6256604 36.7507987,31.6256604 C36.7507987,31.6256604 35.6173019,31.4835157 35.1262013,31.0436604 C34.3581321,30.3469686 34.4124277,29.5429057 34.4124277,29.5429057 C36.1462264,29.5185031 37.2827736,28.9279623 38.1484528,27.9268491 C39.0861195,26.8421572 39.2404654,25.6738868 39.2404654,25.6738868 C39.2404654,25.6738868 38.3076792,26.519434 36.5049434,26.519434 C36.346327,26.519434 36.1767296,26.5115031 36.0028616,26.4950314 C35.1493836,26.4254843 34.5600629,25.8837484 34.5600629,25.8837484 C36.4372264,24.6794843 37.7537421,22.5796478 36.5860818,19.4176918 C35.6502453,16.8828805 33.4027736,14.9898553 31.1394403,13.5641384 C30.3866226,13.0937799 29.9668994,12.5703459 29.9668994,12.1213396 C29.9668994,11.0616604 31.4731447,11.0274969 32.0899182,10.3167736 C32.8030818,9.4895283 32.3559057,8.14861006 31.738522,7.34088679 C31.738522,7.34088679 31.9465535,7.29879245 32.2747673,7.29879245 C32.9257044,7.29879245 34.0531006,7.46228931 34.9797862,8.42313836 C36.210283,9.69572956 35.7002704,11.0824025 35.7002704,11.0824025 L36.0297044,11.1464591 C36.2261447,11.1885535 36.4225849,11.1958742 36.6263459,11.2062453 C36.6702704,11.2062453 36.7154151,11.2086855 36.7587296,11.2086855 C38.5462138,11.2086855 39.3453962,9.34006289 39.3453962,9.34006289 C39.3453962,9.34006289 41.2451321,11.6772138 38.4473836,13.5092327 C37.966044,13.822195 37.7537421,14.113195 37.8092579,14.4224969 L37.8531824,14.6256478 L38.0520629,14.6610314 C40.0799119,15.2106981 41.1060377,16.6101824 42.3591069,18.2000063 C44.2625031,20.6189057 46.9541006,20.6969937 47.2859748,20.6969937 L47.3219686,20.6969937 C47.3219686,20.6969937 46.7082453,22.6363836 44.8975786,22.6363836 C44.8670755,22.6363836 44.8414528,22.6363836 44.8115597,22.6345535 C43.980044,22.6046604 43.553,22.2862075 43.553,22.2862075 C43.553,22.2862075 43.2290566,26.6884214 46.5154654,28.0531321 M44.8975786,23.2299748 C47.1169874,23.2299748 47.860044,20.9721321 47.8905472,20.8751321 L48.1388428,20.079 L47.306717,20.1052327 L47.3036667,20.1052327 C47.0102264,20.1052327 44.5608239,20.039956 42.8245849,17.8333585 L42.660478,17.6283774 C41.525761,16.1861887 40.4502201,14.8135472 38.5260818,14.1876226 C38.5815975,14.1375975 38.6615157,14.0759811 38.770717,14.0046038 C39.7919623,13.3335346 40.3855535,12.5178805 40.5344088,11.5710629 C40.7528113,10.1471761 39.8438176,9.01123899 39.8041635,8.96487421 L39.1861698,8.20046541 L38.8,9.10701887 C38.7737673,9.16436478 38.1252704,10.6150943 36.7587296,10.6150943 L36.6568491,10.6150943 C36.5635094,10.6102138 36.4738302,10.6065535 36.3865912,10.5992327 C36.4341761,9.95195597 36.316434,8.9502327 35.4074403,8.00951572 C34.3148176,6.87845912 32.9751195,6.70886164 32.2747673,6.70886164 C31.9001887,6.70886164 31.651283,6.75522642 31.6238302,6.75766667 L30.691044,6.94312579 L31.2663333,7.70204403 C31.7183899,8.28709434 32.1277421,9.36690566 31.6421321,9.93060377 C31.486566,10.1105723 31.1675031,10.2557673 30.8618616,10.4021824 C30.2334969,10.6907421 29.3745283,11.0952138 29.3745283,12.1213396 C29.3745283,12.784478 29.8900314,13.4793396 30.8240377,14.0698805 C33.5876226,15.8079497 35.2927484,17.6216667 36.0297044,19.6238931 C37.1686918,22.7034906 35.6819686,24.4598616 34.2385597,25.3859371 L33.590673,25.8026101 L34.1580314,26.3229937 C34.2342893,26.3901006 34.9267107,27.0007736 35.9516164,27.0886226 C36.1456164,27.101434 36.3310755,27.1124151 36.5049434,27.1124151 C37.160761,27.1124151 37.7201887,27.0087044 38.1746855,26.8702201 C38.0502327,27.0886226 37.8952767,27.3125157 37.7024969,27.5370189 C36.8776918,28.4929874 35.8625472,28.9279623 34.4026667,28.9517547 L33.8603208,28.9602956 L33.8188365,29.5044717 C33.8133459,29.614283 33.7730818,30.623327 34.7278302,31.4810755 C34.8736352,31.6140692 35.0499434,31.7232704 35.2354025,31.8123396 C34.5875157,32.3955597 33.9298679,33.4113145 33.8023648,35.1506038 C33.6943836,36.6025535 33.348478,37.1400189 33.3442075,37.1455094 L32.7451258,38.0606038 L33.8285975,38.0752453 C35.618522,38.0752453 36.9893333,37.5817044 37.9392013,36.6025535 C38.5004591,36.0236038 38.8219623,35.3696164 39.0110818,34.7906667 C39.3228239,35.056044 39.7248553,35.2890881 40.2495094,35.4129308 C40.4483899,35.4592956 40.6655723,35.4849182 40.9016667,35.4849182 C41.4074088,35.4849182 41.8307925,35.3775472 41.8777673,35.365956 L42.5695786,35.182327 L42.2639371,34.5368805 C42.2413648,34.4850252 41.6642453,33.1892516 42.2852893,31.340761 C42.5524969,30.5409686 42.689761,29.8253648 42.7556478,29.2677673 C43.1918428,29.4947107 43.7750629,29.682 44.5291006,29.6844403 C46.2415472,29.6844403 46.996805,28.4051384 47.0303585,28.3514528 L47.3677233,27.7639623 L46.7424088,27.5065157 C44.7017484,26.6591384 44.2496918,24.3836038 44.1594025,23.1518868 C44.3436415,23.1878805 44.5547233,23.2202138 44.7926478,23.2269245 L44.8975786,23.2299748" id="Fill-26" fill="#1A1918"></path>
                            <path d="M42.4030314,13.5690189 C42.8166541,13.5690189 43.2986038,13.7099434 43.7543208,14.1809119 C45.1849182,15.6328616 46.5154654,15.714 46.5154654,15.714 C46.2738805,16.2496352 45.5729182,16.7193836 44.8469434,16.7193836 C44.6791761,16.7193836 44.5107987,16.693761 44.3436415,16.635805 C43.359,16.3039308 43.0069937,14.8281887 41.2786855,13.9082138 C41.2786855,13.9082138 41.7606352,13.5690189 42.4030314,13.5690189 M40.9968365,14.4328679 C41.8246918,14.8739434 42.3072516,15.4650943 42.7300252,15.9891384 C43.1460881,16.5009811 43.5395786,16.9926918 44.1575723,17.197673 C44.3765849,17.2727107 44.6096289,17.3087044 44.8469434,17.3087044 C45.7724088,17.3087044 46.7033648,16.741956 47.0559811,15.956805 L47.4110377,15.170434 L46.5520692,15.1191887 C46.511805,15.1185786 45.4069811,15.0173082 44.1789245,13.7624088 C43.6731824,13.2469057 43.0612893,12.9766478 42.4030314,12.9766478 C41.5983585,12.9766478 41.001717,13.3786792 40.9364403,13.4201635 L40.1470189,13.9759308 L40.9968365,14.4328679" id="Fill-27" fill="#1A1918"></path>
                            <path d="M41.3854465,22.2733962 L41.3854465,22.3038994 C40.8876352,18.2835849 37.9684843,15.3802956 34.7198994,13.6159937 C34.4197484,13.4549371 34.1421698,13.318283 33.8731321,13.1877296 C34.861434,13.3414654 36.4543082,13.3597673 37.684195,12.2933774 C37.684195,12.2933774 35.802761,13.677 31.9502138,12.4202704 C33.0159937,13.1120818 35.0883774,14.0887925 36.9814025,15.6706855 C41.7112201,19.827044 38.3272013,23.8809119 38.3272013,23.8809119 C40.0268365,22.1068491 40.0976038,20.2065031 39.5973522,18.6545031 C40.4923145,20.1448868 41.0645535,21.9525031 40.9754843,24.1828931 C40.8455409,27.3771824 39.0891698,30.1401572 37.2418994,32.359566 C36.3542579,33.4369371 36.1559874,34.7607736 36.1559874,34.7607736 C36.1559874,34.7607736 36.5140943,33.5925031 37.5414403,32.3906792 C39.5217044,30.0724403 41.2146289,27.6651321 41.4366918,24.1950943 C41.6410629,24.8252893 42.4847799,26.5749497 43.8226478,27.2344277 C43.8226478,27.2344277 42.1413145,26.2211132 41.3854465,22.2733962" id="Fill-28" fill="#1A1918"></path>
                            <path d="M15.6542138,37.4834843 C10.7249057,37.4834843 10.8505786,33.2563585 10.8505786,33.2563585 C10.8505786,33.2563585 10.5071132,34.5082075 9.13325157,34.8345912 C8.96853459,34.8779057 8.79283648,34.8949874 8.62140881,34.8949874 C8.17911321,34.8949874 7.79599371,34.7906667 7.79599371,34.7906667 C7.79599371,34.7906667 8.51281761,33.2728302 7.79843396,31.1479811 C7.20789308,29.3855094 7.30367296,28.0787547 7.30367296,28.0787547 C7.30367296,28.0787547 6.64114465,29.0829182 4.99336478,29.0926792 L4.97689308,29.0926792 C3.60669182,29.0926792 3.00822013,28.052522 3.00822013,28.052522 C6.29218868,26.6884214 5.97068553,22.2862075 5.97068553,22.2862075 C5.97068553,22.2862075 5.54364151,22.6046604 4.71090566,22.6345535 C4.68040252,22.6363836 4.65355975,22.6363836 4.62488679,22.6363836 C2.813,22.6363836 2.19927673,20.6969937 2.19927673,20.6969937 L2.2358805,20.6969937 C2.57080503,20.6969937 5.25996226,20.6182956 7.1615283,18.2000063 C8.41520755,16.6095723 9.44255346,15.2113082 11.4673522,14.6610314 L11.6705031,14.6250377 L11.7138176,14.4224969 C11.7699434,14.113195 11.5582516,13.822195 11.0769119,13.5092327 C8.27977358,11.6772138 10.1795094,9.34067296 10.1795094,9.34067296 C10.1795094,9.34067296 10.9738113,11.2086855 12.7661761,11.2086855 C12.8094906,11.2086855 12.8503648,11.2068553 12.8967296,11.2068553 C13.0980503,11.1958742 13.2969308,11.1879434 13.4933711,11.1464591 L13.822805,11.0824025 C13.822805,11.0824025 13.3109623,9.69572956 14.5445094,8.42313836 C15.471195,7.46228931 16.5973711,7.29879245 17.2483082,7.29879245 C17.5783522,7.29879245 17.7833333,7.34088679 17.7833333,7.34088679 C17.1671698,8.14861006 16.7206038,9.4895283 17.4331572,10.3167736 C18.0499308,11.0274969 19.5543459,11.0616604 19.5543459,12.1207296 C19.5543459,12.5703459 19.1358428,13.0937799 18.3836352,13.5635283 C16.1184717,14.9898553 13.8716101,16.8828805 12.9363836,19.4176918 C11.7699434,22.5802579 13.0864591,24.6794843 14.9660629,25.8837484 C14.9660629,25.8837484 14.3749119,26.4254843 13.5202138,26.4950314 C13.3463459,26.5115031 13.1779686,26.519434 13.0163019,26.519434 C11.2153962,26.519434 10.2832201,25.6738868 10.2832201,25.6738868 C10.2832201,25.6738868 10.4381761,26.8421572 11.3703522,27.9274591 C12.241522,28.9279623 13.376239,29.5185031 15.1106478,29.5429057 C15.1106478,29.5429057 15.1655535,30.3469686 14.3987044,31.0436604 C13.9063836,31.4835157 12.7722767,31.6256604 12.7722767,31.6256604 C12.7722767,31.6256604 14.8977358,32.0563648 15.1313899,35.1933082 C15.258283,36.8929434 15.6895975,37.4834843 15.6895975,37.4834843 L15.6542138,37.4834843 L15.6542138,37.4834843 Z M16.1782579,37.1455094 C16.1764277,37.1400189 15.8323522,36.6025535 15.7219308,35.1506038 C15.5932075,33.4107044 14.9355597,32.3955597 14.2858428,31.8123396 C14.4737421,31.7232704 14.6476101,31.6140692 14.7940252,31.4810755 C15.7481635,30.623327 15.7078994,29.614283 15.7011887,29.5044717 L15.6645849,28.9602956 L15.1179686,28.9517547 C13.6623585,28.9279623 12.6453836,28.4929874 11.8205786,27.5370189 C11.6290189,27.3125157 11.4740629,27.0886226 11.3483899,26.8702201 C11.8022767,27.0087044 12.3586541,27.111805 13.0163019,27.111805 C13.1926101,27.111805 13.376239,27.101434 13.570239,27.0886226 C14.5951447,27.0007736 15.2887862,26.3907107 15.3656541,26.3229937 L15.9330126,25.802 L15.2857358,25.3859371 C13.8368365,24.4598616 12.3562138,22.7034906 13.4933711,19.6238931 C14.230327,17.6216667 15.9330126,15.8079497 18.7008679,14.0698805 C19.6348742,13.4793396 20.1461069,12.784478 20.1461069,12.1207296 C20.1461069,11.0952138 19.2895786,10.6907421 18.6612138,10.4021824 C18.3549623,10.2557673 18.0358994,10.1105723 17.8809434,9.93060377 C17.3941132,9.36690566 17.8040755,8.28709434 18.2561321,7.70204403 L18.8356918,6.94312579 L17.8974151,6.75766667 C17.8699623,6.75522642 17.6241069,6.70886164 17.2483082,6.70886164 C16.547956,6.70886164 15.2106981,6.87845912 14.1186855,8.00951572 C13.2084717,8.95084277 13.0888994,9.95195597 13.1358742,10.5992327 C13.0480252,10.6065535 12.959566,10.6102138 12.8662264,10.6150943 L12.7661761,10.6150943 C11.3959748,10.6150943 10.7486981,9.16375472 10.7236855,9.10701887 L10.3387358,8.20046541 L9.71525157,8.96487421 C9.67986792,9.01123899 8.76843396,10.1471761 8.99049686,11.5710629 C9.13752201,12.5178805 9.73233333,13.3335346 10.7529686,14.0046038 C10.864,14.0759811 10.941478,14.1369874 10.9969937,14.1876226 C9.07041509,14.8135472 7.99609434,16.1861887 6.86137736,17.6283774 L6.6978805,17.8333585 C4.96408176,20.039956 2.50918868,20.1052327 2.21574843,20.1052327 L1.3793522,20.079 L1.63374843,20.8751321 C1.66364151,20.9721321 2.4036478,23.2299748 4.62488679,23.2299748 L4.7316478,23.2269245 C4.96713208,23.2202138 5.17760377,23.1878805 5.36489308,23.1518868 C5.27338365,24.3829937 4.82010692,26.6591384 2.77883648,27.5065157 L2.1553522,27.7639623 L2.49271698,28.3514528 C2.52505031,28.4051384 3.28274843,29.6844403 4.99824528,29.6844403 C5.74801258,29.682 6.3312327,29.4947107 6.76742767,29.2683774 C6.83331447,29.8253648 6.97057862,30.5409686 7.23839623,31.340761 C7.85944025,33.1886415 7.28110063,34.4850252 7.25913836,34.5368805 L6.95227673,35.182327 L7.64530818,35.365956 C7.69106289,35.3775472 8.11749686,35.4849182 8.62140881,35.4849182 C8.85689308,35.4849182 9.07468553,35.4592956 9.27173585,35.4129308 C9.797,35.2890881 10.2033019,35.056044 10.5119937,34.7906667 C10.6998931,35.3696164 11.0226164,36.0236038 11.5826541,36.6025535 C12.5349623,37.5817044 13.9045535,38.0752453 15.6938679,38.0752453 L16.7779497,38.0606038 L16.1782579,37.1455094 L16.1782579,37.1455094 Z" id="Fill-29" fill="#1A1918"></path>
                            <path d="M5.76692453,14.1803019 C6.2244717,13.7099434 6.70581132,13.5690189 7.12187421,13.5690189 C7.76061006,13.5690189 8.24438994,13.9082138 8.24438994,13.9082138 C6.51791195,14.8281887 6.16224528,16.3039308 5.17577358,16.6364151 C5.01288679,16.6943711 4.84389937,16.7187736 4.67552201,16.7187736 C3.95015723,16.7187736 3.24797484,16.2496352 3.00883019,15.714 C3.00883019,15.714 4.33815723,15.6328616 5.76692453,14.1803019 M4.67552201,17.3087044 C4.91344654,17.3087044 5.1458805,17.2733208 5.36550314,17.198283 C5.98471698,16.9926918 6.37820755,16.5015912 6.79366038,15.9891384 C7.21887421,15.4657044 7.6959434,14.8739434 8.52440881,14.4328679 L9.37666667,13.9759308 L8.58541509,13.4201635 C8.5195283,13.3780692 7.92593711,12.9772579 7.12187421,12.9772579 C6.46178616,12.9772579 5.84928302,13.2469057 5.34415094,13.7624088 C4.11426415,15.0179182 3.01249057,15.1185786 2.97283648,15.1197987 L2.11508805,15.170434 L2.46709434,15.9574151 C2.82154088,16.741956 3.75066667,17.3087044 4.67552201,17.3087044" id="Fill-30" fill="#1A1918"></path>
                            <path d="M8.54942138,24.1828931 C8.45669182,21.9525031 9.02954088,20.1448868 9.92572327,18.6545031 C9.42608176,20.2065031 9.49379874,22.1068491 11.1958742,23.881522 C11.1958742,23.881522 7.81124528,19.827044 12.5435031,15.6706855 C14.4353082,14.0887925 16.5058616,13.1120818 17.5716415,12.4202704 C13.7203145,13.677 11.8394906,12.2933774 11.8394906,12.2933774 C13.0681572,13.3597673 14.6616415,13.3414654 15.6493333,13.1877296 C15.3821258,13.318283 15.1014969,13.454327 14.8031761,13.6159937 C11.5539811,15.3802956 8.63605031,18.2835849 8.13579874,22.3038994 L8.13579874,22.2733962 C7.38115094,26.2211132 5.70103774,27.2344277 5.70103774,27.2344277 C7.03768553,26.5749497 7.87957233,24.8252893 8.08455346,24.1950943 C8.30783648,27.6651321 10.000761,30.0724403 11.9804151,32.3906792 C13.007761,33.5925031 13.3695283,34.7607736 13.3695283,34.7607736 C13.3695283,34.7607736 13.1688176,33.4369371 12.2769057,32.359566 C10.4326855,30.1407673 8.67814465,27.3771824 8.54942138,24.1828931" id="Fill-31" fill="#1A1918"></path>
                            <path d="M23.648478,16.0489245 L23.648478,16.8462767 C23.9236164,16.5113522 24.453761,16.5796792 24.453761,16.5796792 L24.453761,17.7290377 C24.453761,17.7290377 24.4360692,18.294566 24.2347484,18.5392013 L25.384717,18.5392013 C25.1864465,18.294566 25.1663145,17.7290377 25.1663145,17.7290377 L25.1663145,16.5796792 C25.1663145,16.5796792 25.6982893,16.5113522 25.9715975,16.8462767 L25.9715975,16.0489245 L23.648478,16.0489245" id="Fill-32" fill="#1A1918"></path>
                            <path d="M23.154327,11.3209371 C23.522195,11.6125472 23.7344969,11.6613522 23.7412075,11.6656226 L23.8851824,11.7321195 L23.8851824,10.9817421 L22.5338931,10.4137736 C22.5338931,10.4137736 22.5454843,10.8487484 23.154327,11.3209371" id="Fill-33" fill="#1A1918"></path>
                            <path d="M26.3669182,11.3209371 C26.9775912,10.8487484 26.9891824,10.4137736 26.9891824,10.4137736 L25.6378931,10.9817421 L25.6378931,11.7321195 L25.7806478,11.6656226 C25.7879686,11.6613522 26.0002704,11.6125472 26.3669182,11.3209371" id="Fill-34" fill="#1A1918"></path>
                            <path d="M24.7600126,9.32176101 L21.505327,8.03574843 C21.7822956,7.38054088 23.0585472,6.8229434 24.7600126,6.82111321 C26.4639182,6.8229434 27.7401698,7.38054088 28.0159182,8.03574843 L24.7600126,9.32176101 L24.7600126,9.32176101 Z M27.1868428,13.3500063 L24.9991572,14.5030252 L24.9991572,9.8348239 L27.9683333,8.827 L27.1868428,13.3500063 L27.1868428,13.3500063 Z M28.5417925,14.589044 L29.5422956,15.170434 L29.556327,15.170434 L29.807673,15.3168491 C29.2427547,15.4730252 28.8114403,15.7554843 28.4490629,16.1264025 C28.4356415,16.1379937 28.4240503,16.1514151 28.4094088,16.1654465 C28.3264403,16.2539057 28.2440818,16.3490755 28.1647736,16.4479057 C28.1507421,16.4662075 28.1348805,16.4857296 28.1184088,16.5076918 C28.0415409,16.6071321 27.9683333,16.7096226 27.8981761,16.8151635 C27.8865849,16.8334654 27.8731635,16.8517673 27.8609623,16.8694591 C27.7786038,16.9933019 27.6986855,17.1250755 27.6199874,17.2617296 C26.907434,18.4891761 25.7708868,19.2224717 24.7600126,19.2243019 C23.7503585,19.2224717 22.6132013,18.4891761 21.9018679,17.2617296 C21.8243899,17.1287358 21.7463019,17.0000126 21.6639434,16.8749497 C21.6474717,16.8517673 21.6328302,16.8273648 21.6175786,16.8072327 C21.5480314,16.7053522 21.4772642,16.6053019 21.4064969,16.5113522 C21.388195,16.4857296 21.3717233,16.4662075 21.3534214,16.4442453 C21.2765535,16.3490755 21.1966352,16.2551258 21.1161069,16.1684969 C21.0990252,16.1544654 21.087434,16.1379937 21.0727925,16.1239623 C20.7085849,15.752434 20.2784906,15.4730252 19.7129623,15.3168491 L19.9667484,15.170434 L19.9783396,15.170434 L20.980673,14.589044 L22.0086289,14.0003333 L24.7551321,15.4955975 L24.7600126,15.4894969 L24.7679434,15.4955975 L27.5138365,14.0003333 L28.5417925,14.589044 L28.5417925,14.589044 Z M32.4882893,18.7417421 C32.2643962,19.3328931 32.0789371,19.9728491 32.0789371,20.6091447 L32.0807673,24.7173082 C31.2224088,24.5733333 31.1211384,23.6490881 31.117478,23.6088239 L31.1016164,23.4209245 L30.9173774,23.4044528 C30.5440189,23.3684591 30.2963333,23.2110629 30.0876918,23.008522 C29.6667484,22.5875786 29.6661384,21.9055283 29.6667484,21.8994277 C29.6606478,21.9342013 29.2037107,22.5747673 29.7344654,23.2751195 C29.9577484,23.5691698 30.2816918,23.7509686 30.700195,23.8223459 C30.7984151,24.3347987 31.1803145,25.0589434 32.0807673,25.1693648 L32.0807673,27.1801321 L29.5477862,27.1801321 C28.3801258,26.529805 28.8748868,25.3865472 28.8974591,25.3371321 L28.9962893,25.1205597 L28.7730063,25.035761 C27.5077358,24.5666226 27.8566918,23.3050126 27.8731635,23.250717 L27.9244088,23.0670881 L27.751761,22.9853396 C26.7079434,22.5009497 26.8488679,21.1972453 26.8628994,21.1423396 C26.5413962,21.4034465 26.4260943,21.9342013 26.6469371,22.455195 C26.5273648,22.5924591 26.3669182,22.7571761 26.1906101,22.9395849 C25.1089686,22.6638365 25.0754151,21.670044 25.0754151,21.6242893 L25.0729748,21.4711635 L24.9308302,21.4162579 C24.5086667,21.2600818 24.2188868,21.0252075 24.075522,20.7104151 C23.9156855,20.3614591 23.9718113,19.9960314 24.0157358,19.8197233 C24.1401887,19.8483962 24.2628113,19.8673082 24.3805535,19.8776792 C24.502566,19.8898805 24.6270189,19.8978113 24.7526918,19.8978113 L24.7697736,19.8978113 C24.8948365,19.8978113 25.0186792,19.8898805 25.1406918,19.8776792 C25.8148113,19.8105723 26.5688491,19.5214025 27.3552201,18.7417421 L32.4882893,18.7417421 L32.4882893,18.7417421 Z M29.323283,36.6446478 L29.6063522,35.1707358 C29.6209937,35.0841069 29.6392956,34.9828365 29.6514969,34.8980377 C29.7320252,34.9315912 29.8156038,34.958434 29.9071132,34.9755157 C30.0132642,34.9956478 30.1102642,35.0060189 30.1987233,35.0060189 C30.6306478,35.0060189 30.8826038,34.7790755 31.049761,34.5850755 L31.2663333,34.3325094 L31.0894151,34.0549308 C31.0735535,34.027478 30.680673,33.407044 30.3793019,32.9824403 C30.3195157,32.8988616 30.2633899,32.8158931 30.206044,32.7262138 C29.8625786,32.2125409 29.4330943,31.5689245 28.5710755,31.5689245 L28.4942075,31.5707547 C28.352673,31.5799057 28.2306604,31.6079686 28.1318302,31.6451824 C27.8609623,31.5188994 27.5815535,31.4530126 27.2911635,31.4530126 C26.9342767,31.4530126 26.6353459,31.5512327 26.4352453,31.6189497 C26.3778994,31.6360314 26.3266541,31.6537233 26.2863899,31.6616541 L24.6758239,31.5030377 C24.6556918,31.4987673 24.5904151,31.4603333 24.5098868,31.3657736 L24.5098868,31.3578428 L24.8582327,31.2181384 C24.7600126,30.0571887 23.6460377,29.3434151 23.0243836,29.1012201 C22.9975409,28.9853082 22.9414151,28.8693962 22.843805,28.7748365 L22.4978994,28.4466226 L22.193478,28.8114403 L22.0440126,28.9968994 L19.7886101,28.0708239 L21.2558113,29.9126038 L20.6768616,30.7898742 C20.4651698,31.0143774 20.6988239,31.2407107 20.6988239,31.2407107 L21.2972956,31.6525031 L21.9171195,31.4212893 C21.9384717,31.4212893 21.9573836,31.4261698 21.9787358,31.4286101 C21.9482327,31.5225597 21.9091887,31.8922579 21.883566,31.9953585 L20.8074151,31.7842767 L19.6769686,32.4224025 C19.0955786,32.8494465 19.0162704,33.5552893 19.2322327,34.0390692 L19.3572956,34.3129874 L19.536044,34.7003774 L19.9313648,34.5368805 C19.9368553,34.5350503 19.9423459,34.5332201 19.9460063,34.5301698 C19.8038616,34.9846667 19.8618176,35.4165912 20.1149937,35.6996604 L20.3553585,36.0016415 L20.6750314,36.4055031 L21.0258176,36.0284843 C21.1283082,35.9259937 21.4638428,35.550805 21.5663333,35.2299119 L21.6425912,34.9846667 L21.4717736,34.7961572 L21.4431006,34.7619937 L21.6358805,34.4441509 L23.0402453,34.7754151 L23.3568679,34.8480126 L23.5246352,34.570434 L23.6161447,34.4197484 C23.6338365,34.3874151 23.6381069,34.3825346 23.7027736,34.3825346 C23.7527987,34.3825346 23.8022138,34.3874151 23.8558994,34.3996164 C24.386044,34.4996667 24.8747044,34.5490818 25.3090692,34.5490818 C25.7294025,34.5490818 25.9813585,34.5332201 26.2808994,34.4337799 C26.2808994,34.4337799 27.0349371,35.2903082 27.0611698,35.3232516 L26.5987421,36.7483585 L26.5786101,36.8343774 C25.7037799,36.9051447 25.277956,37.0973145 24.7630629,37.6109874 C24.0157358,36.869761 23.4862013,36.791673 21.4772642,36.791673 C19.0723962,36.791673 17.4423082,35.3818176 17.4423082,33.1294654 L17.4423082,27.6236478 L32.0807673,27.6236478 L32.0838176,33.1294654 C32.0838176,34.9547736 31.0119371,36.229195 29.323283,36.6446478 L29.323283,36.6446478 Z M20.3071635,33.5314969 L20.3834214,33.7218365 C20.3327862,33.8883836 19.7617673,34.1238679 19.7617673,34.1238679 L19.6385346,33.8536101 C19.5073711,33.5656604 19.536044,33.0800503 19.933195,32.7829497 L20.8592704,32.2192516 L21.8414717,32.4278931 C21.8231698,32.7390252 22.009239,32.9720692 22.009239,32.9720692 L20.980673,32.7744088 L20.3651195,33.1996226 C20.2601887,33.2728302 20.2528679,33.407044 20.3071635,33.5314969 L20.3071635,33.5314969 Z M29.1689371,35.0877673 L28.8529245,36.734327 C28.6509937,36.763 28.4386918,36.7776415 28.2184591,36.7861824 L28.5515535,35.2036792 C28.6509937,34.7333208 27.3875535,34.5869057 26.7634591,33.6620503 C26.4590377,34.0042956 25.8855786,34.1067862 25.3090692,34.1067862 C24.783195,34.1067862 24.2573208,34.0232075 23.9376478,33.959761 C23.8565094,33.9469497 23.7790314,33.9377987 23.7027736,33.9377987 C23.5185346,33.9377987 23.3501572,33.9951447 23.2336352,34.1897547 L23.1421258,34.3447107 L21.4211384,33.9396289 L20.9928742,34.648522 C20.9330881,34.7638239 20.9282075,34.8602138 21.0258176,34.9675849 L21.1417296,35.0950881 C21.0618113,35.3452138 20.7037044,35.724673 20.7037044,35.724673 L20.4480881,35.405 C20.2455472,35.1786667 20.2784906,34.7638239 20.4895723,34.3807044 L21.1722327,33.2276855 L22.630283,33.4381572 L22.4039497,32.922044 C22.0995283,32.2387736 22.5637862,31.3706541 22.6132013,30.8704025 C22.5961195,31.0216981 22.4570252,31.0558616 22.2959686,31.0558616 C22.1489434,31.0558616 21.9848365,31.0277987 21.8756352,31.0277987 C21.8323208,31.0277987 21.795717,31.0320692 21.776195,31.0467107 L21.3808742,31.2864654 L21.0697421,31.010717 C21.0319182,30.9582516 21.020327,30.8337987 21.1118365,30.7410692 L21.8323208,29.9321258 L20.980673,28.9371132 L22.1733459,29.536195 L22.5381635,29.0945094 C22.6382138,29.1927296 22.5942893,29.448956 22.5942893,29.448956 C22.9664277,29.4581069 24.0108553,30.0352264 24.0663711,31.3840755 C24.0694214,31.4249497 24.0694214,31.4713145 24.0694214,31.515239 C24.0694214,31.515239 24.0791824,31.5323208 24.0974843,31.5597736 C24.1706918,31.6616541 24.3750629,31.9215409 24.6331195,31.9453333 L26.2821195,32.1088302 L26.2888302,32.1088302 C26.4694088,32.1088302 26.8293459,31.8965283 27.2911635,31.8965283 C27.5431195,31.8965283 27.8225283,31.9605849 28.1208491,32.1484843 C28.1208491,32.1484843 28.2715346,32.029522 28.5143396,32.0173208 C28.5326415,32.0148805 28.5539937,32.0148805 28.5710755,32.0148805 C29.3104717,32.0148805 29.6179434,32.6835094 30.0150943,33.2386667 C30.3134151,33.6620503 30.7123962,34.289195 30.7123962,34.289195 C30.5653711,34.463673 30.428717,34.561283 30.1987233,34.561283 C30.1358868,34.561283 30.0645094,34.5564025 29.9864214,34.5405409 C29.1927296,34.3941258 29.0786478,32.7634277 28.6259811,32.6347044 C28.6015786,32.6279937 28.5771761,32.6255535 28.5539937,32.6255535 C28.4081887,32.6255535 28.3447421,32.7548868 28.3447421,32.7548868 C28.5515535,33.3112642 28.430761,33.5357673 28.653434,33.9640314 C28.8193711,34.2818742 29.1152516,34.5429811 29.2366541,34.6668239 C29.2366541,34.6668239 29.2037107,34.9077987 29.1689371,35.0877673 L29.1689371,35.0877673 Z M27.6504906,36.7971635 C27.4284277,36.7971635 27.2240566,36.8002138 27.0404277,36.8075346 L27.5235975,35.3031195 C27.5992453,35.0950881 27.2173459,34.8272704 27.0593396,34.5917862 C27.2972642,34.7412516 27.9140377,35.0688553 28.2105283,35.1994088 C28.1806352,35.2482138 27.6504906,36.7971635 27.6504906,36.7971635 L27.6504906,36.7971635 Z M20.4682201,23.2403459 L20.5371572,20.6250063 L21.1240377,20.0039623 L21.4925157,20.7756918 L20.7659308,23.2861006 L20.4682201,23.2403459 L20.4682201,23.2403459 Z M20.8903836,24.0505094 C20.9867736,24.2518302 21.1594214,24.386044 21.2802138,24.4623019 C21.2765535,24.6514214 21.2582516,24.9436415 21.2088365,25.2023082 C21.1966352,25.2602642 21.1819937,25.3133396 21.1661321,25.3664151 C21.1575912,25.3999686 21.1478302,25.4274214 21.1411195,25.4493836 C20.9611509,25.4493836 20.6097547,25.4274214 20.321195,25.3224906 C20.0021321,25.2047484 19.526283,24.6196981 19.6360943,23.9742516 C19.7739686,23.8900629 20.0936415,23.7100943 20.3931824,23.7100943 C20.6231761,23.7100943 20.7805723,23.8186855 20.8903836,24.0505094 L20.8903836,24.0505094 Z M27.6883145,24.7533019 C27.2368679,25.0857862 26.0740881,25.9349937 25.6519245,26.2296541 L21.591956,25.5000189 C21.601717,25.4640252 21.611478,25.4274214 21.6200189,25.3920377 C21.6730943,25.180956 21.728,24.8936164 21.7304403,24.5550314 L25.1431321,24.6099371 L25.2084088,24.5434403 C25.2602642,24.4915849 26.3412956,23.4471572 26.8921824,22.8462453 C27.0233459,23.0109623 27.1868428,23.1677484 27.402195,23.3050126 C27.3289874,23.7052138 27.3601006,24.2737925 27.6883145,24.7533019 L27.6883145,24.7533019 Z M22.1672453,18.7417421 C22.6552956,19.2267421 23.1329748,19.5281132 23.5868616,19.6940503 C23.5282956,19.9283145 23.4508176,20.4114843 23.6692201,20.8928239 C23.8479686,21.2808239 24.1719119,21.5803648 24.6404403,21.7792453 C24.6916855,22.2593648 24.9954969,22.9810692 25.8349434,23.2989119 C25.4664654,23.6698302 25.1089686,24.0193962 24.9643836,24.1603208 L21.5590126,24.1066352 C21.4821447,24.0682013 21.349761,23.9809623 21.291195,23.8583396 C21.2844843,23.8406478 21.2735031,23.8314969 21.2661824,23.8144151 L21.8219497,23.9040943 C21.8341509,23.9059245 21.8457421,23.9059245 21.8573333,23.9059245 C21.9647044,23.9059245 22.058044,23.8314969 22.0757358,23.7210755 C22.0940377,23.5984528 22.0122893,23.4849811 21.8921069,23.4660692 L21.2088365,23.3580881 L21.9671447,20.738478 L21.2484906,19.2267421 L20.0973019,20.4438176 L20.0265346,23.1677484 L19.2529748,23.0445157 C19.1334025,23.0213333 19.0193208,23.1085723 18.9979686,23.2299748 C18.9796667,23.3495472 19.0614151,23.4636289 19.1828176,23.4849811 L19.5073711,23.5343962 C19.3914591,23.600283 19.3145912,23.6527484 19.3054403,23.6600692 L19.2401635,23.7058239 L19.2218616,23.7869623 C19.0339623,24.5513711 19.4591761,25.2767358 19.9191635,25.6012893 L19.9026918,25.6976792 C19.8837799,25.8154214 19.9106226,25.9301132 19.9813899,26.0258931 C20.0484969,26.1241132 20.1503774,26.1826792 20.2662893,26.2034214 C20.2900818,26.2076918 20.3157044,26.209522 20.3376667,26.209522 C20.5371572,26.209522 20.7110252,26.0716478 20.7598302,25.870327 C20.9312579,25.8904591 21.087434,25.8947296 21.194805,25.8947296 L21.2863145,25.8947296 L25.753805,26.7024528 L25.8300629,26.6518176 C26.1857296,26.4029119 27.5431195,25.414 27.9878553,25.0863962 C28.110478,25.1919371 28.2471321,25.2871069 28.4124591,25.3664151 C28.2678742,25.8489748 28.2593333,26.5932516 28.828522,27.1801321 L17.4423082,27.1801321 L17.4423082,20.6091447 C17.4423082,19.9728491 17.256239,19.3328931 17.0360063,18.7417421 L22.1672453,18.7417421 L22.1672453,18.7417421 Z M21.5516918,8.827 L24.5226981,9.8348239 L24.5226981,14.5030252 L22.3350126,13.3500063 L21.5516918,8.827 L21.5516918,8.827 Z M28.8004591,8.26391195 C28.8004591,7.12492453 26.8830314,6.10001887 24.7673333,6.10001887 L24.7551321,6.10001887 C22.6388239,6.10001887 20.7213962,7.12492453 20.7213962,8.26391195 L20.7634906,8.54393082 L21.6084277,13.3945409 L20.7598302,13.8874717 L18.5636038,15.170434 L18.5715346,15.170434 C18.5715346,15.170434 18.0773836,15.4236101 17.8486101,15.5797862 C17.0122138,16.160566 16.8346855,17.0079434 17.3202956,17.3581195 C17.4398679,16.6669182 17.9858742,15.9452138 19.0089497,15.9452138 C19.7452956,15.9452138 20.3071635,16.325283 20.7598302,16.8950818 C20.8769623,17.0390566 20.9873836,17.1927925 21.0904843,17.3581195 C21.2173774,17.566761 21.3454906,17.7497799 21.4717736,17.9260881 L15.8146604,17.9260881 C16.2307233,18.7618742 16.626044,19.6470755 16.626044,20.6091447 L16.626044,33.1294654 C16.626044,36.1602579 18.9564843,37.606717 21.4772642,37.606717 C23.425805,37.606717 23.6881321,37.5176478 24.7630629,38.5889182 C25.8331132,37.5176478 26.0960503,37.606717 28.0458113,37.606717 C30.5684214,37.606717 32.8958113,36.1602579 32.8958113,33.1294654 L32.8958113,20.6091447 C32.8958113,19.6470755 33.290522,18.7618742 33.7084151,17.9260881 L28.0494717,17.9260881 C28.1757547,17.7497799 28.3032579,17.566761 28.430761,17.3581195 C28.5350818,17.1927925 28.6448931,17.0390566 28.7595849,16.8950818 C29.216522,16.3228428 29.7765597,15.9452138 30.5135157,15.9452138 C31.5353711,15.9452138 32.0807673,16.6669182 32.2021698,17.3581195 C32.6877799,17.0079434 32.5120818,16.160566 31.6714151,15.5797862 C31.4456918,15.4236101 30.9509308,15.170434 30.9509308,15.170434 L30.9588616,15.170434 L28.7595849,13.8874717 L27.9140377,13.3945409 L28.7595849,8.54393082 L28.8004591,8.26391195 L28.8004591,8.26391195 Z" id="Fill-35" fill="#1A1918"></path>
                            <path d="M68.9896769,18.2572211 C69.1585325,18.0041053 69.3058469,17.7509895 69.4957805,17.4981053 L69.6014021,17.4981053 L69.6014021,23.1074105 L72.1534612,23.1074105 L72.1534612,13.5971579 L69.6014021,13.5971579 L66.7540193,17.9411158 C66.5851637,18.1942316 66.4376178,18.4262737 66.2687621,18.6580842 C66.0999065,18.8901263 65.9525922,19.1432421 65.7837366,19.3963579 L65.6783466,19.3963579 L65.6783466,13.5973895 L63.1260558,13.5973895 L63.1260558,23.1076421 L65.6783466,23.1076421 C66.1633722,22.4538947 66.6275514,21.758 67.0914989,21.0831789 C67.5554465,20.3872842 68.0196257,19.7124632 68.4835733,19.0378737 C68.6521973,18.7629895 68.8208213,18.5101053 68.9896769,18.2572211" id="Shape" fill="#1A1919"></path>
                            <path d="M77.0887239,19.1638526 L80.8640017,19.1638526 L80.8640017,23.1071789 L83.4162925,23.1071789 L83.4162925,13.5969263 L80.8640017,13.5969263 L80.8640017,17.2026105 L77.0887239,17.2026105 L77.0887239,13.5969263 L74.5366647,13.5969263 L74.5366647,23.1071789 L77.0887239,23.1071789 L77.0887239,19.1638526 L77.0887239,19.1638526 L77.0887239,19.1638526 Z M93.940699,20.0494105 C93.940699,19.0795579 93.6032194,18.3202105 92.9284918,17.7720632 C92.2535327,17.2449895 91.3464839,16.9708 90.2075771,16.9708 L88.3726331,16.9708 L88.3726331,13.5969263 L85.820574,13.5969263 L85.820574,23.1071789 L90.3129671,23.1071789 C91.4097179,23.1071789 92.2956886,22.8540632 92.9495698,22.3689053 C93.6032194,21.8839789 93.940699,21.1248632 93.940699,20.0494105 L93.940699,20.0494105 L93.940699,20.0494105 Z M91.0090043,20.9349684 C90.7558367,21.1248632 90.4183571,21.2093895 90.0176435,21.2093895 L88.3724015,21.2093895 L88.3724015,18.8688211 L89.9965655,18.8688211 C90.4183571,18.8688211 90.7558367,18.9741895 91.0090043,19.1638526 C91.2619402,19.3535158 91.3886399,19.6490105 91.3886399,20.0494105 C91.3886399,20.4500421 91.2619402,20.7453053 91.0090043,20.9349684 L91.0090043,20.9349684 L91.0090043,20.9349684 Z M126.695676,21.8629053 C127.138546,21.4412 127.497103,20.9349684 127.750271,20.3236 C128.003438,19.7333053 128.130138,19.0374105 128.130138,18.2782947 C128.130138,17.5613263 128.003438,16.9075789 127.750271,16.3381263 C127.497103,15.7478316 127.138546,15.2418316 126.695676,14.8198947 C126.252807,14.3979579 125.725625,14.0607789 125.092822,13.8289684 C124.481097,13.5969263 123.806137,13.4491789 123.089254,13.4072632 L123.089254,9.82242105 L120.705819,10.7292842 L120.705819,13.4072632 C119.988703,13.4494105 119.334822,13.5969263 118.702251,13.8500421 C118.090526,14.1031579 117.542266,14.4405684 117.078087,14.8620421 C116.614139,15.2837474 116.27666,15.7899789 116.002414,16.3594316 C115.749246,16.9286526 115.6017,17.5824 115.6017,18.2782947 C115.6017,19.0374105 115.7284,19.7333053 115.960258,20.3236 C116.192348,20.9352 116.550905,21.4412 116.993775,21.8839789 C117.436644,22.3269895 117.985136,22.6641684 118.596861,22.8962105 C119.229432,23.1282526 119.904623,23.276 120.663894,23.3179158 L120.663894,27.3455368 L123.068176,26.4389053 L123.068176,23.2968421 C123.764213,23.2544632 124.439172,23.1071789 125.050897,22.8751368 C125.725393,22.6220211 126.252807,22.2846105 126.695676,21.8629053 L126.695676,21.8629053 L126.695676,21.8629053 Z M120.726665,21.4412 C120.368107,21.4201263 120.030628,21.3358316 119.714458,21.1880842 C119.398056,21.0405684 119.102733,20.8509053 118.870643,20.5764842 C118.638553,20.3233684 118.448852,20.0072632 118.301074,19.6274737 C118.153528,19.2479158 118.090294,18.8262105 118.090294,18.3412842 C118.090294,17.5187158 118.322384,16.8228211 118.786331,16.2533684 C119.250279,15.6841474 119.90416,15.3678105 120.747975,15.3045895 L120.747975,21.4407368 L120.726665,21.4407368 L120.726665,21.4412 L120.726665,21.4412 Z M124.101229,21.2093895 C123.785059,21.3569053 123.468658,21.4412 123.1101,21.4625053 L123.1101,15.3050526 C123.953915,15.3680421 124.586487,15.6846105 125.029356,16.2538316 C125.472226,16.8232842 125.704315,17.5191789 125.704315,18.3417474 C125.704315,18.8266737 125.641081,19.2694526 125.493304,19.6492421 C125.345758,20.0288 125.155824,20.3451368 124.923966,20.5982526 C124.691877,20.8509053 124.417863,21.0616421 124.101229,21.2093895 L124.101229,21.2093895 L124.101229,21.2093895 Z M141.586239,20.3233684 C141.839407,19.7330737 141.965875,19.0371789 141.965875,18.2780632 C141.965875,17.5610947 141.839407,16.9073474 141.586239,16.3378947 C141.333072,15.7476 140.974514,15.2416 140.531645,14.8196632 C140.088775,14.3977263 139.561593,14.0605474 138.928559,13.8287368 C138.316833,13.5966947 137.641874,13.4489474 136.924991,13.4070316 L136.924991,9.82218947 L134.541787,10.7290526 L134.541787,13.3859579 C133.82444,13.4283368 133.170791,13.5758526 132.538219,13.8289684 C131.926262,14.0818526 131.378003,14.4192632 130.914055,14.8409684 C130.449876,15.2626737 130.112628,15.7689053 129.838151,16.3381263 C129.584983,16.9075789 129.437669,17.5613263 129.437669,18.2572211 C129.437669,19.0161053 129.564137,19.712 129.796226,20.3025263 C130.028316,20.9141263 130.386874,21.4201263 130.829743,21.8629053 C131.272613,22.3056842 131.820872,22.6430947 132.432598,22.8751368 C133.044323,23.1071789 133.74036,23.2546947 134.499631,23.2968421 L134.499631,27.3244632 L136.904144,26.4178316 L136.904144,23.2757684 C137.600181,23.2336211 138.275141,23.0861053 138.886866,22.8542947 C139.498591,22.6011789 140.025773,22.2637684 140.468642,21.8420632 C140.974514,21.4412 141.333072,20.9349684 141.586239,20.3233684 L141.586239,20.3233684 L141.586239,20.3233684 Z M134.562865,21.4412 C134.204308,21.4201263 133.866828,21.3358316 133.529348,21.1880842 C133.212947,21.0405684 132.917623,20.8509053 132.685534,20.5764842 C132.453676,20.3233684 132.263742,20.0072632 132.116196,19.6274737 C131.968418,19.2479158 131.905184,18.8262105 131.905184,18.3412842 C131.905184,17.5187158 132.137274,16.8228211 132.601222,16.2533684 C133.065401,15.6841474 133.71905,15.3678105 134.562865,15.3045895 L134.562865,21.4412 L134.562865,21.4412 L134.562865,21.4412 L134.562865,21.4412 Z M139.329504,19.6487789 C139.181726,20.0283368 138.992024,20.3446737 138.759935,20.5977895 C138.528077,20.8509053 138.253599,21.0616421 137.937429,21.2093895 C137.621028,21.3569053 137.304858,21.4412 136.946069,21.4625053 L136.946069,15.3050526 C137.789883,15.3680421 138.422455,15.6846105 138.886634,16.2538316 C139.329504,16.8232842 139.561593,17.5191789 139.561593,18.3417474 C139.561593,18.8264421 139.47705,19.2692211 139.329504,19.6487789 L139.329504,19.6487789 L139.329504,19.6487789 Z" id="Shape" fill="#1A1919"></path>
                            <path d="M52.8124293,11.7623579 L56.5244732,11.7623579 L56.5244732,23.1282526 L59.1608443,23.1282526 L59.1608443,11.7623579 L62.7464202,11.7623579 L62.7464202,9.548 L52.8121977,9.548 L52.8121977,11.7623579 L52.8124293,11.7623579 L52.8124293,11.7623579 Z M104.528571,13.6388421 L101.618186,13.6388421 L98.2225437,17.6875368 L98.2225437,13.5966947 L95.6915626,13.5966947 L95.6915626,23.1280211 L98.2225437,23.1280211 L98.2225437,18.4888 L101.554952,23.1280211 L104.550112,23.1280211 L100.795681,18.0249474 L104.528571,13.6388421 L104.528571,13.6388421 L104.528571,13.6388421 Z M113.028332,14.7564421 C112.62785,14.3347368 112.121514,13.9973263 111.551945,13.7655158 C110.982608,13.5334737 110.350036,13.4281053 109.674845,13.4281053 C108.999655,13.4281053 108.367083,13.5334737 107.797745,13.7655158 C107.228408,13.9973263 106.722073,14.3136632 106.321359,14.7353684 C105.899567,15.1570737 105.583166,15.6843789 105.351308,16.2957474 C105.11945,16.9071158 105.013828,17.6032421 105.013828,18.3834316 C105.013828,19.1425474 105.119218,19.8173684 105.351308,20.4289684 C105.562088,21.0405684 105.878489,21.5465684 106.279435,21.9893474 C106.679917,22.4110526 107.165174,22.7482316 107.734511,22.9802737 C108.304081,23.2123158 108.936652,23.3387579 109.653999,23.3387579 C110.328727,23.3387579 110.961761,23.2333895 111.531099,23.0013474 C112.100668,22.7695368 112.607003,22.4532 113.007485,22.0104211 C113.429277,21.5887158 113.74591,21.0614105 113.977536,20.4500421 C114.209626,19.8384421 114.336326,19.1425474 114.336326,18.3623579 C114.336326,17.6032421 114.230704,16.9284211 113.998846,16.3168211 C113.745447,15.7054526 113.429045,15.1783789 113.028332,14.7564421 L113.028332,14.7564421 L113.028332,14.7564421 Z M111.615179,19.5223368 C111.530867,19.8808211 111.383321,20.1760842 111.214697,20.4502737 C111.046073,20.7244632 110.813984,20.9141263 110.560816,21.0827158 C110.307649,21.2304632 109.991247,21.3147579 109.653999,21.3147579 C108.97904,21.3147579 108.451858,21.0616421 108.071991,20.5556421 C107.713433,20.0494105 107.523731,19.3116 107.523731,18.3836632 C107.523731,17.5613263 107.692587,16.8654316 108.050913,16.3170526 C108.409471,15.7689053 108.915574,15.4947158 109.590533,15.4947158 C110.307649,15.4947158 110.83483,15.7689053 111.193388,16.2959789 C111.551945,16.8441263 111.741879,17.5400211 111.741879,18.4045053 C111.762957,18.7842947 111.720569,19.1638526 111.615179,19.5223368 L111.615179,19.5223368 L111.615179,19.5223368 Z" id="Shape" fill="#1A1919"></path>
                            <path d="M63.3952056,32.9157053 C63.3952056,33.6666424 63.29885,34.3484039 63.106136,34.9610105 C62.9134219,35.5736172 62.6416496,36.097289 62.2908112,36.5320421 C61.9399728,36.9667952 61.5174905,37.3027357 61.0233518,37.5398737 C60.5292131,37.7770117 59.9757862,37.8955789 59.3630541,37.8955789 C58.7206739,37.8955789 58.1524229,37.7720714 57.6582842,37.5250526 C57.1641455,37.2780339 56.744134,36.9346829 56.3982368,36.4949895 C56.0523397,36.0552961 55.7904502,35.5316241 55.6125603,34.9239579 C55.4346703,34.3162917 55.3457267,33.6518211 55.3457267,32.9305263 C55.3457267,32.2191123 55.4371411,31.559582 55.6199723,30.9519158 C55.8028036,30.3442496 56.0646933,29.8181076 56.4056489,29.3734737 C56.7466045,28.9288398 57.1666163,28.5805485 57.6656962,28.3285895 C58.1647762,28.0766304 58.7305567,27.9506526 59.3630541,27.9506526 C59.9757862,27.9506526 60.5292131,28.0692199 61.0233518,28.3063579 C61.5174905,28.5434959 61.9399728,28.8819066 62.2908112,29.3216 C62.6416496,29.7612934 62.9134219,30.2849654 63.106136,30.8926316 C63.29885,31.5002977 63.3952056,32.1746489 63.3952056,32.9157053 L63.3952056,32.9157053 L63.3952056,32.9157053 Z M62.2389269,32.9305263 C62.2389269,32.3673235 62.1796312,31.8436515 62.0610379,31.3594947 C61.9424445,30.875338 61.7620868,30.4554124 61.5199587,30.0997053 C61.2778306,29.7439981 60.9764106,29.4673414 60.6156894,29.2697263 C60.2549682,29.0721112 59.8374272,28.9733053 59.3630541,28.9733053 C58.888681,28.9733053 58.47114,29.0721112 58.1104188,29.2697263 C57.7496976,29.4673414 57.4507481,29.7415281 57.2135616,30.0922947 C56.9763751,30.4430613 56.7960171,30.8580467 56.6724824,31.3372632 C56.5489478,31.8164797 56.4871814,32.3426217 56.4871814,32.9157053 C56.4871814,33.4591465 56.546477,33.9704677 56.6650704,34.4496842 C56.7836638,34.9289007 56.9640215,35.3488263 57.2061496,35.7094737 C57.4482776,36.0701211 57.7496976,36.3541885 58.1104188,36.5616842 C58.47114,36.7691799 58.888681,36.8729263 59.3630541,36.8729263 C59.84731,36.8729263 60.2697923,36.7667099 60.6305135,36.5542737 C60.9912347,36.3418375 61.2901842,36.0577703 61.5273707,35.7020632 C61.7645573,35.346356 61.9424445,34.9289007 62.0610379,34.4496842 C62.1796312,33.9704677 62.2389269,33.464087 62.2389269,32.9305263 L62.2389269,32.9305263 L62.2389269,32.9305263 Z M69.6213219,37.7473684 L69.6213219,31.4336 L65.9597726,31.4336 L65.9597726,37.7473684 L64.8924384,37.7473684 L64.8924384,30.4998737 L70.6886562,30.4998737 L70.6886562,37.7473684 L69.6213219,37.7473684 L69.6213219,37.7473684 Z M76.9295966,31.4039579 L74.083372,31.4039579 L74.083372,33.9531789 C74.083372,34.4175742 74.0685481,34.8770224 74.0388997,35.3315368 C74.0092513,35.7860513 73.9203077,36.1960963 73.7720661,36.5616842 C73.6238246,36.9272721 73.3891123,37.2286304 73.067922,37.4657684 C72.7467318,37.7029064 72.2995431,37.8362945 71.7263422,37.8659368 L71.6373977,37.0211368 C71.9931776,36.9519716 72.2674204,36.8408149 72.4601345,36.6876632 C72.6528485,36.5345114 72.7961467,36.3245488 72.890033,36.0577684 C72.9839193,35.7909881 73.0407444,35.4575179 73.06051,35.0573474 C73.0802756,34.6571769 73.0901582,34.165617 73.0901582,33.5826526 L73.0901582,30.5146947 L77.9672826,30.5146947 L77.9672826,37.7473684 L76.9295966,37.7473684 L76.9295966,31.4039579 L76.9295966,31.4039579 Z M82.4589808,30.3813053 C83.2990166,30.3813053 83.9438579,30.5764471 84.3935241,30.9667368 C84.8431903,31.3570266 85.06802,31.9424521 85.06802,32.7230316 L85.06802,37.7473684 L84.030334,37.7473684 L84.030334,37.0359579 L84.0006858,37.0359579 C83.6152577,37.3817842 83.2323059,37.609038 82.8518191,37.7177263 C82.4713323,37.8264147 82.1081459,37.8807579 81.7622487,37.8807579 C81.4756482,37.8807579 81.1890523,37.8387652 80.9024517,37.7547789 C80.6158512,37.6707927 80.3564324,37.5374044 80.1241872,37.3546105 C79.8919419,37.1718167 79.7041722,36.9371524 79.5608719,36.6506105 C79.4175716,36.3640686 79.3459226,36.0133073 79.3459226,35.5983158 C79.3459226,35.2426087 79.4126303,34.9214893 79.5460478,34.6349474 C79.6794653,34.3484055 79.867235,34.1038607 80.1093631,33.9013053 C80.3514912,33.6987499 80.6380873,33.5431304 80.9691601,33.4344421 C81.3002329,33.3257538 81.6634196,33.2714105 82.0587305,33.2714105 C82.3749792,33.2714105 82.6936938,33.3035224 83.014884,33.3677474 C83.3360743,33.4319723 83.674554,33.5628901 84.030334,33.7605053 L84.030334,32.8712421 C84.030334,32.3179201 83.8895065,31.9152854 83.6078475,31.6633263 C83.3261885,31.4113673 82.9037062,31.2853895 82.3403881,31.2853895 C81.9846082,31.2853895 81.6535402,31.3298522 81.3471743,31.4187789 C81.0408084,31.5077057 80.7344469,31.626273 80.428081,31.7744842 L80.0723029,30.9445053 C80.4182,30.7765325 80.7838572,30.6406741 81.1692853,30.5369263 C81.5547134,30.4331785 81.9846077,30.3813053 82.4589808,30.3813053 L82.4589808,30.3813053 L82.4589808,30.3813053 Z M84.030334,34.6497684 C83.7338508,34.4817956 83.4373719,34.3484076 83.1408888,34.2496 C82.8444057,34.1507924 82.4886311,34.1013895 82.0735545,34.1013895 C81.5991815,34.1013895 81.1989351,34.2273673 80.8728035,34.4793263 C80.546672,34.7312854 80.3836087,35.0943977 80.3836087,35.5686737 C80.3836087,36.0429497 80.5219654,36.4035917 80.7986831,36.6506105 C81.0754009,36.8976293 81.475647,37.0211368 81.9994341,37.0211368 C82.3848622,37.0013753 82.7529901,36.8976291 83.1038286,36.7098947 C83.454667,36.5221604 83.763499,36.2949067 84.030334,36.0281263 L84.030334,34.6497684 L84.030334,34.6497684 Z M89.4559496,31.4187789 L89.4559496,37.7473684 L88.3886154,37.7473684 L88.3886154,31.4187789 L86.090882,31.4187789 L86.090882,30.5146947 L91.7685071,30.5146947 L91.7685071,31.4187789 L89.4559496,31.4187789 L89.4559496,31.4187789 Z M94.7926207,30.3813053 C95.6326565,30.3813053 96.2774978,30.5764471 96.727164,30.9667368 C97.1768302,31.3570266 97.4016599,31.9424521 97.4016599,32.7230316 L97.4016599,37.7473684 L96.3639739,37.7473684 L96.3639739,37.0359579 L96.3343257,37.0359579 C95.9488976,37.3817842 95.5659458,37.609038 95.185459,37.7177263 C94.8049722,37.8264147 94.4417858,37.8807579 94.0958886,37.8807579 C93.8092881,37.8807579 93.5226922,37.8387652 93.2360916,37.7547789 C92.9494911,37.6707927 92.6900724,37.5374044 92.4578271,37.3546105 C92.2255818,37.1718167 92.0378121,36.9371524 91.8945118,36.6506105 C91.7512115,36.3640686 91.6795626,36.0133073 91.6795626,35.5983158 C91.6795626,35.2426087 91.7462703,34.9214893 91.8796877,34.6349474 C92.0131052,34.3484055 92.200875,34.1038607 92.443003,33.9013053 C92.6851311,33.6987499 92.9717272,33.5431304 93.3028,33.4344421 C93.6338728,33.3257538 93.9970595,33.2714105 94.3923704,33.2714105 C94.7086191,33.2714105 95.0273337,33.3035224 95.3485239,33.3677474 C95.6697142,33.4319723 96.0081939,33.5628901 96.3639739,33.7605053 L96.3639739,32.8712421 C96.3639739,32.3179201 96.2231464,31.9152854 95.9414874,31.6633263 C95.6598284,31.4113673 95.2373461,31.2853895 94.674028,31.2853895 C94.3182481,31.2853895 93.9871801,31.3298522 93.6808142,31.4187789 C93.3744483,31.5077057 93.0680868,31.626273 92.7617209,31.7744842 L92.4059428,30.9445053 C92.7518399,30.7765325 93.1174971,30.6406741 93.5029252,30.5369263 C93.8883533,30.4331785 94.3182476,30.3813053 94.7926207,30.3813053 L94.7926207,30.3813053 L94.7926207,30.3813053 Z M96.3639739,34.6497684 C96.0674908,34.4817956 95.7710118,34.3484076 95.4745287,34.2496 C95.1780456,34.1507924 94.822271,34.1013895 94.4071945,34.1013895 C93.9328214,34.1013895 93.532575,34.2273673 93.2064435,34.4793263 C92.8803119,34.7312854 92.7172486,35.0943977 92.7172486,35.5686737 C92.7172486,36.0429497 92.8556053,36.4035917 93.132323,36.6506105 C93.4090408,36.8976293 93.8092869,37.0211368 94.333074,37.0211368 C94.7185021,37.0013753 95.0866301,36.8976291 95.4374685,36.7098947 C95.7883069,36.5221604 96.0971389,36.2949067 96.3639739,36.0281263 L96.3639739,34.6497684 L96.3639739,34.6497684 Z" id="" fill="#1A1919"></path>
                        </g>
                    </g>
                </g>
            </g>
        </g>
    </g>
</svg>