<svg width="81" height="73" viewBox="0 0 81 73" xmlns="http://www.w3.org/2000/svg" xmlns:xlink="http://www.w3.org/1999/xlink"><title>FAFA2E4E-9FBB-4294-92FC-86CFF620B3FD</title><defs><path id="a" d="M0 73h80.865V.776H0z"/></defs><g fill="none" fill-rule="evenodd"><g transform="translate(0 -.775)"><mask id="b" fill="#fff"><use xlink:href="#a"/></mask><path d="M32.722 11.213l-.035.008.03-.039.005.031zm47.094 23.345l1.049-3.36-3.471.11c-.294 0-2.426-.061-4.495-1.561.156.014.308.036.468.036 2.128 0 4.19-1.281 5.015-3.116l1.493-3.313c-1.873.025-3.586-.212-3.586-.212-.014-.002-1.364-.177-2.924-1.771-1.119-1.142-2.504-1.747-4.004-1.747-.657 0-1.244.119-1.749.279.079-.269.153-.541.197-.822.476-3.101-1.518-5.465-1.518-5.463l-2.612-3.234-1.619 3.799c-.006.011-.416.902-1.146 1.337-.22-1.118-.763-2.373-1.921-3.572-2.185-2.262-4.844-2.6-6.235-2.6-.645 0-1.106.071-1.217.089l-3.151.62c.182-.704.569-1.932 1.277-3.035l1.739-2.71-4.376.498-1.395-2.961-2.699 1.393L40.439.775l-2.488 2.467-2.706-1.393-1.392 2.961-4.375-.499 1.742 2.711c.709 1.103 1.095 2.328 1.275 3.03l-3.008-.593-.103-.017c-.151-.023-.608-.094-1.256-.094-1.39 0-4.049.338-6.229 2.599-1.16 1.199-1.704 2.455-1.926 3.573-.726-.431-1.132-1.307-1.132-1.307l-1.622-3.822-2.652 3.254c-.325.419-1.923 2.643-1.488 5.439.044.279.117.55.195.819a5.679 5.679 0 0 0-1.746-.279c-1.501 0-2.886.605-4.007 1.747-1.556 1.588-2.897 1.768-2.886 1.768 0 0-1.419.255-3.616.215l1.485 3.313c.827 1.835 2.89 3.116 5.015 3.116.16 0 .313-.022.47-.036-2.064 1.5-4.196 1.561-4.454 1.563L0 31.198l1.072 3.359c.539 1.731 2.339 4.597 5.787 4.907-.374 1.571-1.206 3.334-3.032 4.093l-2.634 1.085 1.436 2.501c.81 1.35 2.714 2.928 5.424 2.928a8.277 8.277 0 0 0 1.697-.177c.139.616.313 1.234.519 1.846.806 2.403.111 4.077.104 4.095L9.072 58.56l2.903.765c.037.011.913.252 2.011.252a6.137 6.137 0 0 0 2.394-.469 8.85 8.85 0 0 0 1.364 1.841c1.86 1.909 4.497 2.876 7.836 2.876h.01l2.384-.032-4.925 2.049 3.739 1.807c1.359.662 2.969 1.445 4.61 2.044l-.467 1.277 1.288.587c.115.052 2.594 1.161 6.713 1.397 0 0 .994.046 1.542.046s1.53-.049 1.53-.049c4.092-.242 6.552-1.342 6.666-1.394l1.292-.588-.471-1.279c1.687-.618 3.357-1.431 4.66-2.068l3.669-1.782-4.909-2.047 2.394.032c3.343 0 5.98-.968 7.837-2.879a8.69 8.69 0 0 0 1.363-1.838c.313.127.64.232.978.313.444.104.921.156 1.418.156a8.298 8.298 0 0 0 1.99-.246l2.915-.771-1.27-2.674c-.03-.069-.725-1.743.082-4.147a19.79 19.79 0 0 0 .518-1.845 8.365 8.365 0 0 0 1.709.177 6.33 6.33 0 0 0 5.427-2.956l1.422-2.475-2.633-1.081c-1.831-.761-2.66-2.522-3.032-4.093 3.403-.296 5.229-3.166 5.787-4.908z" fill="#FEFEFE" mask="url(#b)"/></g><path d="M40.44 10.287c-2.789.003-4.88.916-5.335 1.992l5.335 2.106 5.337-2.106c-.452-1.076-2.544-1.989-5.337-1.992M40.496 66.025h-.107c-1.69.011-4.019-.335-5.138-.662l-1.35 3.65c.89.316 3.903.923 6.545.923 2.635 0 5.65-.607 6.538-.923l-1.347-3.65c-1.125.327-3.45.673-5.14.662M50.705 62.393c-1.004.568-3.246 1.422-4.549 1.818l1.094 3.015c2.017-.55 3.683-1.194 5.057-1.884l-2.272-.755.67-2.194zM30.18 62.393l.672 2.194-2.274.755c1.373.69 3.045 1.333 5.055 1.884l1.096-3.015c-1.3-.396-3.546-1.25-4.549-1.818M40.44 6.797c2.103 0 4.164.503 5.75 1.387a14.15 14.15 0 0 1 .623-1.694l-.6.07-.629.067-.266-.573-.803-1.693-1.462.76-.569.29-.455-.447L40.44 3.39l-1.586 1.573-.453.448-.569-.29-1.47-.761-.79 1.693-.273.573-.628-.066-.598-.071c.275.618.476 1.208.623 1.694 1.592-.884 3.65-1.387 5.744-1.387M72.54 26.376c.274.095.55.136.826.136 1.19 0 2.339-.77 2.735-1.648 0 0-2.18-.132-4.526-2.513-.746-.771-1.537-1.002-2.214-1.002a3.518 3.518 0 0 0-1.844.555c2.833 1.508 3.41 3.927 5.024 4.472M7.518 26.512c.275 0 .553-.041.82-.136 1.617-.545 2.2-2.964 5.03-4.472 0 0-.793-.556-1.84-.556-.681 0-1.471.23-2.22 1.003-2.343 2.38-4.522 2.513-4.522 2.513.392.878 1.543 1.648 2.732 1.648" fill="#FEFEFE"/><path d="M71.686 43.748c-2.19-1.08-3.576-3.949-3.91-4.982-.364 5.688-3.14 9.634-6.385 13.434-1.684 1.97-2.272 3.885-2.272 3.885s.325-2.17 1.781-3.936c3.028-3.637 5.906-8.167 6.12-13.403.146-3.656-.792-6.619-2.259-9.062.82 2.544.704 5.66-2.082 8.567 0 0 5.547-6.645-2.207-13.458-3.102-2.593-6.499-4.194-8.246-5.328 6.315 2.06 9.4-.208 9.4-.208-2.017 1.748-4.629 1.72-6.248 1.466.44.214.897.438 1.387.702 5.326 2.892 10.111 7.651 10.927 14.241v-.05c1.238 6.472 3.994 8.132 3.994 8.132m1.621-7.54c.05.003.091.003.142.003 2.968 0 3.973-3.179 3.973-3.179h-.058c-.544 0-4.957-.128-8.077-4.093-2.053-2.607-3.736-4.899-7.059-5.8l-.327-.059-.07-.333c-.093-.507.256-.984 1.044-1.497 4.587-3.003 1.472-6.834 1.472-6.834s-1.309 3.063-4.24 3.063c-.07 0-.144-.003-.217-.003-.333-.018-.655-.03-.977-.099l-.54-.105s.836-2.273-1.18-4.359c-1.52-1.575-3.368-1.843-4.435-1.843-.538 0-.879.07-.879.07 1.013 1.323 1.745 3.521.576 4.877-1.01 1.165-3.48 1.221-3.48 2.958 0 .736.687 1.594 1.921 2.365 3.711 2.337 7.395 5.44 8.928 9.595 1.914 5.183-.243 8.625-3.32 10.598 0 0 .965.89 2.364 1.003.285.027.564.04.823.04 2.956 0 4.485-1.386 4.485-1.386s-.253 1.915-1.79 3.693c-1.42 1.642-3.28 2.61-6.124 2.65 0 0-.089 1.318 1.17 2.46.804.72 2.663.953 2.663.953s-3.48.706-3.866 5.848c-.208 2.786-.92 3.754-.92 3.754h.062c8.08 0 7.872-6.929 7.872-6.929s.562 2.052 2.816 2.587c.272.071.563.1.84.1.725 0 1.356-.172 1.356-.172s-1.18-2.489-.01-5.97c.971-2.89.814-5.032.814-5.032s1.088 1.646 3.787 1.661h.028c2.247 0 3.226-1.703 3.226-1.703-5.386-2.237-4.855-9.453-4.855-9.453s.7.522 2.062.571M19.492 52.2c-3.245-3.8-6.02-7.746-6.387-13.433-.335 1.032-1.715 3.9-3.905 4.98 0 0 2.753-1.66 3.99-8.131v.05c.82-6.59 5.603-11.35 10.93-14.24.487-.265.948-.49 1.385-.702-1.619.252-4.23.28-6.245-1.466 0 0 3.084 2.268 9.397.207-1.747 1.135-5.14 2.735-8.243 5.328-7.756 6.813-2.209 13.459-2.209 13.459-2.789-2.91-2.9-6.023-2.08-8.568-1.47 2.443-2.409 5.407-2.258 9.062.212 5.236 3.09 9.766 6.111 13.404 1.463 1.765 1.792 3.935 1.792 3.935s-.595-1.915-2.278-3.885m1.298-1.254s1.86-.233 2.666-.954c1.257-1.141 1.167-2.46 1.167-2.46-2.843-.04-4.703-1.007-6.13-2.648-1.529-1.778-1.783-3.694-1.783-3.694s1.528 1.386 4.48 1.386c.265 0 .541-.013.826-.04 1.401-.113 2.37-1.002 2.37-1.002-3.08-1.974-5.239-5.415-3.327-10.6 1.533-4.154 5.216-7.257 8.93-9.594 1.232-.771 1.918-1.63 1.918-2.365 0-1.737-2.466-1.792-3.476-2.958-1.169-1.356-.437-3.554.574-4.878 0 0-.337-.068-.878-.068-1.066 0-2.913.267-4.432 1.842-2.02 2.086-1.183 4.359-1.183 4.359l-.54.106c-.322.068-.647.08-.978.098-.076 0-.143.003-.214.003-2.938 0-4.24-3.062-4.24-3.062s-3.114 3.83 1.471 6.833c.79.513 1.136.99 1.044 1.497l-.07.333-.334.058c-3.318.902-5.003 3.195-7.058 5.802-3.117 3.964-7.525 4.092-8.074 4.092h-.06s1.006 3.179 3.976 3.179c.047 0 .091 0 .141-.003 1.365-.05 2.065-.57 2.065-.57s.528 7.215-4.856 9.452c0 0 .981 1.704 3.227 1.704h.027c2.701-.015 3.787-1.661 3.787-1.661s-.157 2.14.811 5.03c1.171 3.483-.004 5.972-.004 5.972s.628.17 1.353.17c.281 0 .57-.028.84-.1 2.251-.534 2.814-2.585 2.814-2.585s-.206 6.928 7.874 6.928h.058s-.707-.968-.915-3.754c-.383-5.142-3.867-5.848-3.867-5.848M38.618 25.413h3.808v1.307c-.447-.548-1.32-.437-1.32-.437v1.884s.033.927.358 1.328H39.58c.329-.401.359-1.328.359-1.328v-1.884s-.87-.111-1.321.437v-1.307zm-4.15.196c.132.142.262.297.388.452.03.037.058.069.088.111.116.153.232.317.345.485.026.033.05.072.077.111.134.204.263.416.39.634 1.165 2.011 3.029 3.214 4.685 3.217 1.656-.003 3.519-1.206 4.688-3.217.129-.224.26-.441.395-.644l.06-.088c.115-.174.235-.342.36-.505l.078-.098c.13-.161.264-.317.4-.463.024-.023.044-.045.066-.064a4.83 4.83 0 0 1 2.227-1.327l-.412-.24h-.023l-1.64-.953-1.685-.965-4.502 2.451-.012-.01-.01.01-4.501-2.451-1.685.965-1.643.953h-.02l-.415.24a4.824 4.824 0 0 1 2.229 1.323c.025.023.044.051.072.073z" fill="#FEFEFE"/><path d="M39.006 17.108v1.229l-.236-.108c-.011-.008-.358-.087-.962-.565-.997-.774-1.017-1.488-1.017-1.488l2.215.932zm1.045 5.77v-7.651l-4.87-1.651 1.284 7.414 3.586 1.889zM41.879 17.108l2.215-.932s-.02.714-1.02 1.488c-.601.478-.95.557-.96.565l-.235.108v-1.23zm2.539 3.882l1.28-7.414-4.866 1.65v7.653l3.586-1.89zM33.164 40.614c.473.172 1.05.208 1.344.208.011-.036.027-.081.041-.136.026-.086.051-.174.07-.269.082-.424.111-.903.117-1.213-.198-.125-.48-.345-.639-.675-.18-.38-.439-.558-.815-.558-.49 0-1.015.295-1.242.433-.179 1.058.601 2.017 1.124 2.21M43.936 36.556c-.904.984-2.676 2.696-2.76 2.782l-.108.108-5.594-.09a5.77 5.77 0 0 1-.181 1.372l-.045.178 6.654 1.196c.692-.484 2.598-1.875 3.338-2.421-.538-.785-.59-1.718-.468-2.374a3.347 3.347 0 0 1-.836-.751" fill="#FEFEFE"/><path d="M44.694 29.827c-1.289 1.278-2.525 1.752-3.629 1.862-.202.02-.403.033-.609.033h-.028a6.097 6.097 0 0 1-1.207-.127c-.073.288-.165.888.097 1.46.235.515.709.9 1.403 1.155l.232.091.004.251c0 .075.056 1.703 1.829 2.155.289-.298.552-.568.747-.794-.362-.853-.172-1.724.354-2.15-.023.09-.254 2.226 1.458 3.02l.282.134-.084.3c-.027.09-.599 2.158 1.475 2.927l.367.14-.162.354c-.037.08-.849 1.955 1.065 3.021h4.153v-3.297c-1.477-.18-2.102-1.367-2.264-2.207-.686-.118-1.217-.415-1.582-.897-.871-1.148-.122-2.198-.112-2.255-.001.01 0 1.127.69 1.818.343.332.747.59 1.36.65l.302.025.026.31c.006.065.172 1.58 1.58 1.817l-.004-6.735c0-1.043.304-2.092.671-3.06h-8.414zM33.518 32.914l-.113 4.287.488.075 1.191-4.115-.604-1.265zM36.1 48.79a.244.244 0 0 1 .03-.487.247.247 0 0 1 .233.258.248.248 0 0 1-.263.228m10.56 3.796c.036 0 .078.005.118.015.74.211.929 2.885 2.229 3.123.129.027.246.035.349.035.376 0 .6-.16.842-.446 0 0-.655-1.028-1.143-1.723-.651-.908-1.155-2.005-2.367-2.005-.028 0-.063 0-.093.004-.4.02-.645.215-.645.215-.49-.309-.948-.413-1.36-.413-.758 0-1.348.348-1.644.348h-.01l-2.704-.267c-.422-.04-.757-.467-.877-.633a6.038 6.038 0 0 1-.047-.073c0-.073 0-.148-.005-.215-.091-2.212-1.803-3.157-2.412-3.172 0 0 .072-.42-.093-.58l-.597.723-1.956-.982 1.396 1.63-1.182 1.327c-.15.152-.13.356-.068.443l.51.451.648-.393c.032-.024.092-.032.163-.032.179 0 .448.047.689.047.265 0 .493-.057.52-.304-.081.82-.842 2.244-.342 3.364l.37.845-2.39-.345-1.12 1.89c-.344.628-.398 1.308-.067 1.68l.419.523s.587-.622.719-1.032l-.191-.209c-.16-.176-.152-.334-.053-.522l.7-1.164 2.823.665.149-.254c.192-.319.467-.413.769-.413.126 0 .253.015.385.036.525.103 1.386.242 2.248.242.946 0 1.885-.169 2.385-.73 1.023 1.515 3.093 1.756 2.93 2.526l-.545 2.595c.36-.015.708-.039 1.039-.085l.518-2.7c.057-.294.112-.689.112-.689-.2-.203-.684-.63-.956-1.152-.366-.702-.168-1.07-.507-1.982 0 0 .104-.212.344-.212" fill="#FEFEFE"/><path d="M32.247 55.041s.936-.385 1.019-.658l-.125-.313c-.09-.204-.076-.424.095-.543l1.009-.699 1.686.325s-.305-.383-.275-.893l-1.61-.34-1.518.924a1.473 1.473 0 0 0-.483 1.754l.202.443zM44.178 59.44c.3-.012.636-.017 1-.017 0 0 .869-2.538.918-2.619a21.272 21.272 0 0 1-1.887-.996c.259.386.884.825.76 1.165l-.791 2.467z" fill="#FEFEFE"/><path d="M52.44 44.386H28.447v9.025c0 3.692 2.67 6.002 6.613 6.002 3.293 0 4.162.13 5.387 1.344.843-.842 1.54-1.156 2.976-1.273l.033-.14.757-2.338a456.796 456.796 0 0 0-1.28-1.457c-.49.163-.903.19-1.593.19-.71 0-1.511-.083-2.381-.246a1.104 1.104 0 0 0-.25-.029c-.108 0-.114.01-.143.062l-.15.247-.274.455-.52-.12-2.303-.542-.314.521.047.056.28.31-.126.401c-.169.526-.718 1.141-.886 1.31l-.576.617-.524-.663-.394-.494c-.415-.464-.51-1.172-.277-1.916a.061.061 0 0 1-.023.01l-.648.268-.293-.635-.206-.45a2.195 2.195 0 0 1 .73-2.649l1.854-1.046 1.763.346c.042-.169.105-.775.157-.929-.035-.004-.066-.012-.101-.012l-1.017.38-.982-.677s-.382-.369-.034-.738l.949-1.438-2.407-3.019 3.697 1.518.246-.304.5-.598.567.54c.159.153.25.343.296.533 1.018.397 2.845 1.568 3.006 3.47l-.572.228v.014c.131.155.24.22.273.225l2.639.26c.066-.012.15-.042.243-.069.328-.112.82-.274 1.404-.274.476 0 .934.11 1.378.316.162-.062.363-.107.593-.122l.127-.003c1.413 0 2.117 1.055 2.68 1.898.094.146.187.283.285.42a47.135 47.135 0 0 1 1.163 1.757l.29.455-.354.414c-.274.318-.688.69-1.395.69-.147 0-.306-.016-.479-.049a2.064 2.064 0 0 1-.419-.128c-.02.14-.05.305-.075.448l-.463 2.414c2.768-.68 4.526-2.769 4.526-5.76l-.005-9.026zM28.446 43.66h18.663c-.933-.964-.92-2.183-.682-2.975a3.125 3.125 0 0 1-.695-.458c-.73.538-2.955 2.16-3.537 2.565l-.125.084-7.324-1.324h-.15c-.175 0-.432-.007-.713-.04a.712.712 0 0 1-1.276.255.708.708 0 0 1-.13-.538l.029-.158c-.755-.532-1.453-1.72-1.144-2.974l.03-.132.107-.077c.016-.01.142-.098.332-.205l-.533-.082a.368.368 0 0 1-.302-.417c.035-.199.222-.34.418-.303l1.268.2.115-4.464 1.887-1.996 1.177 2.48-1.242 4.294 1.12.176a.366.366 0 0 1 .302.42.358.358 0 0 1-.36.3c-.018 0-.038 0-.057-.002l-.911-.147c.013.028.03.044.042.072.096.201.312.343.438.406l5.583.09c.237-.23.822-.805 1.425-1.412a3.011 3.011 0 0 1-1.956-2.492c-.768-.327-1.3-.817-1.593-1.454-.357-.789-.231-1.58-.134-1.964-.745-.27-1.528-.767-2.328-1.56h-8.41c.36.968.666 2.017.666 3.06V43.66z" fill="#FFE500"/><path d="M36.13 48.302a.244.244 0 0 0-.263.226.24.24 0 0 0 .233.261.248.248 0 0 0 .262-.228.247.247 0 0 0-.233-.259M47.25 67.227l-1.094-3.015c1.303-.396 3.546-1.251 4.55-1.818l-.67 2.193 2.27.755c-1.373.69-3.038 1.333-5.055 1.885zm-6.804 2.71c-2.641 0-5.656-.607-6.544-.924l1.349-3.651c1.12.328 3.449.674 5.138.663h.107c1.69.01 4.016-.335 5.14-.663l1.348 3.65c-.888.318-3.902.925-6.538.925zm-11.867-4.595l2.274-.755-.672-2.193c1.002.567 3.248 1.422 4.549 1.818l-1.097 3.015c-2.01-.552-3.682-1.195-5.054-1.885zm23.829-.67l-1.382-.53.382-1.428.42-1.557s-2.448 1.329-5.9 2.327c-.98.28-1.72.408-1.72.408v1.06s-1.847.32-3.712.32h-.107c-1.867 0-3.71-.32-3.71-.32v-1.06s-.743-.128-1.72-.408c-3.451-.998-5.898-2.327-5.898-2.327l.414 1.557.389 1.428-1.387.53-1.538.575c1.762.85 4.205 2.089 6.44 2.7l-.527 1.442s2.836 1.29 7.558 1.304v.002h.063v-.002c4.73-.013 7.562-1.304 7.562-1.304l-.53-1.441c2.236-.612 4.683-1.85 6.438-2.701l-1.535-.575zM34.672 6.562l.628.066.27-.573.792-1.694 1.47.76.569.29.453-.448 1.587-1.572 1.588 1.572.455.449.57-.29 1.462-.761.802 1.694.266.573.628-.066.601-.073a14.11 14.11 0 0 0-.623 1.695c-1.585-.883-3.646-1.386-5.75-1.386-2.093 0-4.152.503-5.744 1.386a14.625 14.625 0 0 0-.622-1.695l.598.073zM40.44 7.68c2.813 0 5.064.932 6.307 1.926 0 0 .37-2.224 1.632-4.186l-2.267.258-1.187-2.52-2.276 1.175-2.21-2.183-2.203 2.183-2.282-1.174-1.184 2.519-2.266-.258c1.262 1.962 1.63 4.186 1.63 4.186 1.253-.994 3.495-1.926 6.306-1.926zM76.1 45.09s-.978 1.704-3.226 1.704h-.028c-2.698-.015-3.786-1.661-3.786-1.661s.157 2.14-.815 5.03c-1.171 3.484.01 5.972.01 5.972s-.63.17-1.355.17c-.278 0-.568-.027-.841-.098-2.253-.536-2.815-2.587-2.815-2.587s.207 6.929-7.872 6.929h-.063s.712-.97.92-3.755c.385-5.141 3.866-5.847 3.866-5.847s-1.858-.234-2.663-.955c-1.26-1.141-1.17-2.46-1.17-2.46 2.843-.04 4.705-1.007 6.124-2.648 1.538-1.778 1.79-3.693 1.79-3.693s-1.53 1.386-4.484 1.386a8.47 8.47 0 0 1-.823-.041c-1.4-.113-2.365-1.002-2.365-1.002 3.077-1.973 5.235-5.415 3.32-10.6-1.532-4.154-5.217-7.257-8.927-9.594-1.234-.77-1.922-1.628-1.922-2.365 0-1.736 2.47-1.792 3.48-2.958 1.169-1.356.437-3.553-.576-4.877 0 0 .34-.07.879-.07 1.068 0 2.916.269 4.434 1.843 2.017 2.086 1.18 4.359 1.18 4.359l.54.106c.324.068.646.08.979.098.072 0 .146.004.217.004 2.93 0 4.24-3.064 4.24-3.064s3.115 3.832-1.472 6.834c-.788.514-1.137.99-1.045 1.497l.07.333.328.058c3.323.902 5.006 3.195 7.059 5.802 3.12 3.964 7.532 4.093 8.077 4.093h.059s-1.007 3.178-3.975 3.178c-.05 0-.092 0-.14-.003-1.364-.05-2.063-.57-2.063-.57s-.531 7.215 4.855 9.452zm-2.651-7.906c3.639 0 4.856-3.701 4.906-3.86l.407-1.304-1.364.043h-.005c-.48 0-4.496-.107-7.342-3.724l-.27-.336c-1.86-2.364-3.622-4.615-6.775-5.64.09-.083.22-.184.4-.3 1.674-1.1 2.647-2.438 2.892-3.99.358-2.333-1.132-4.196-1.198-4.272l-1.013-1.252-.633 1.486c-.042.093-1.106 2.472-3.346 2.472h-.166c-.153-.01-.301-.015-.444-.026.079-1.061-.115-2.703-1.605-4.245-1.791-1.854-3.987-2.133-5.135-2.133-.613 0-1.021.076-1.066.08l-1.53.304.944 1.245c.74.959 1.412 2.729.615 3.653-.255.294-.778.532-1.278.772-1.031.474-2.44 1.136-2.44 2.818 0 1.088.846 2.227 2.377 3.194 4.53 2.849 7.325 5.822 8.533 9.104 1.868 5.048-.57 7.927-2.936 9.446l-1.061.682.929.854c.125.11 1.26 1.11 2.94 1.255.318.02.622.038.907.038a9.333 9.333 0 0 0 2.738-.397 7.08 7.08 0 0 1-.774 1.094c-1.353 1.566-3.017 2.28-5.41 2.318l-.89.015-.067.892c-.008.179-.075 1.834 1.49 3.239.239.218.528.397.833.544-1.063.956-2.141 2.62-2.35 5.47-.177 2.382-.743 3.262-.751 3.27l-.982 1.502 1.776.024c2.935 0 5.18-.81 6.738-2.414.92-.95 1.447-2.022 1.757-2.97a4.772 4.772 0 0 0 3.1 1.137c.828 0 1.523-.176 1.6-.194l1.133-.302-.501-1.057c-.036-.085-.983-2.21.035-5.24.438-1.311.663-2.483.772-3.397.714.37 1.67.679 2.906.683 2.807 0 4.045-2.098 4.1-2.185l.553-.963-1.025-.423c-3.345-1.39-4.085-5.12-4.234-7.137.302.058.648.112 1.038.123l.172.004z" fill="#1D1C1B"/><path d="M69.36 21.348c.678 0 1.468.231 2.215 1.003 2.345 2.38 4.526 2.513 4.526 2.513-.396.878-1.545 1.648-2.735 1.648-.276 0-.552-.042-.826-.137-1.613-.544-2.19-2.963-5.023-4.471 0 0 .79-.556 1.843-.556zm-2.305 1.417c1.357.722 2.148 1.691 2.841 2.55.682.839 1.327 1.646 2.34 1.981.36.124.74.182 1.13.182 1.517 0 3.042-.929 3.621-2.215l.582-1.29-1.408-.083c-.066-.002-1.877-.168-3.89-2.225-.829-.845-1.832-1.288-2.91-1.288-1.32 0-2.298.659-2.406.727l-1.293.911 1.393.75zM67.692 35.616v.05c-.816-6.59-5.6-11.349-10.925-14.24a38.093 38.093 0 0 0-1.389-.703c1.62.252 4.231.282 6.246-1.466 0 0-3.083 2.27-9.399.208 1.748 1.134 5.145 2.735 8.247 5.328 7.753 6.813 2.207 13.458 2.207 13.458 2.787-2.908 2.903-6.023 2.082-8.567 1.468 2.443 2.406 5.406 2.26 9.062-.215 5.236-3.093 9.765-6.12 13.403-1.457 1.766-1.782 3.936-1.782 3.936s.589-1.915 2.273-3.885c3.244-3.8 6.02-7.746 6.383-13.434.335 1.033 1.72 3.901 3.911 4.982 0 0-2.756-1.66-3.994-8.132M25.514 60.548c-8.08 0-7.874-6.929-7.874-6.929s-.563 2.051-2.815 2.587a3.322 3.322 0 0 1-.84.1c-.724 0-1.351-.172-1.351-.172s1.174-2.488.003-5.97c-.968-2.89-.811-5.032-.811-5.032s-1.086 1.646-3.787 1.661h-.027c-2.246 0-3.227-1.704-3.227-1.704 5.383-2.236 4.856-9.452 4.856-9.452s-.7.522-2.065.571c-.05.003-.094.003-.141.003-2.97 0-3.976-3.179-3.976-3.179h.06c.549 0 4.957-.129 8.074-4.093 2.055-2.607 3.739-4.899 7.058-5.802l.333-.058.07-.332c.093-.508-.254-.984-1.043-1.497-4.585-3.003-1.471-6.834-1.471-6.834s1.302 3.063 4.24 3.063c.07 0 .139-.003.214-.003.33-.018.656-.03.979-.099l.54-.105s-.84-2.273 1.182-4.359c1.519-1.575 3.366-1.843 4.433-1.843.54 0 .876.07.876.07-1.01 1.323-1.742 3.52-.574 4.877 1.012 1.165 3.478 1.221 3.478 2.957 0 .737-.687 1.595-1.92 2.365-3.713 2.338-7.396 5.441-8.93 9.596-1.911 5.184.247 8.625 3.328 10.598 0 0-.97.89-2.37 1.002-.285.028-.56.041-.826.041-2.951 0-4.48-1.386-4.48-1.386s.254 1.915 1.783 3.693c1.428 1.641 3.288 2.61 6.13 2.65 0 0 .09 1.317-1.166 2.458-.807.722-2.667.955-2.667.955s3.484.706 3.867 5.847c.208 2.787.915 3.755.915 3.755h-.058zm.859-.555c-.002-.009-.567-.889-.747-3.269-.211-2.852-1.29-4.516-2.355-5.472a3.4 3.4 0 0 0 .833-.543c1.565-1.406 1.498-3.06 1.487-3.24l-.06-.892-.896-.015c-2.385-.038-4.053-.752-5.405-2.318a7.22 7.22 0 0 1-.774-1.094 9.289 9.289 0 0 0 2.734.397c.289 0 .59-.017.908-.038 1.68-.144 2.817-1.144 2.943-1.255l.93-.854-1.061-.682c-2.374-1.518-4.802-4.397-2.937-9.445 1.207-3.282 3.998-6.256 8.536-9.105 1.53-.967 2.368-2.106 2.368-3.194 0-1.682-1.404-2.344-2.434-2.817-.502-.24-1.024-.479-1.28-.773-.797-.924-.124-2.694.616-3.653l.95-1.244-1.537-.304c-.046-.005-.45-.08-1.064-.08-1.15 0-3.341.278-5.13 2.132-1.493 1.543-1.688 3.184-1.612 4.245-.144.011-.29.018-.442.026h-.164c-2.245 0-3.306-2.379-3.348-2.472l-.631-1.486-1.022 1.253c-.058.075-1.551 1.938-1.188 4.272.24 1.551 1.216 2.89 2.89 3.99.182.115.308.216.4.3-3.16 1.025-4.92 3.275-6.78 5.64l-.268.335c-2.842 3.617-6.865 3.724-7.347 3.724l-1.371-.043.418 1.305c.048.158 1.26 3.86 4.902 3.86l.176-.005c.385-.01.73-.064 1.038-.123-.151 2.018-.894 5.75-4.24 7.138l-1.022.422.553.963c.054.088 1.295 2.185 4.107 2.185 1.23-.004 2.185-.31 2.9-.682.109.913.333 2.086.772 3.396 1.018 3.03.07 5.155.034 5.24l-.503 1.058 1.137.301c.074.018.773.194 1.599.194a4.75 4.75 0 0 0 3.099-1.137c.308.948.837 2.021 1.755 2.97 1.562 1.605 3.806 2.414 6.739 2.414l1.778-.024-.984-1.5z" fill="#1D1C1B"/><path d="M9.307 22.35c.75-.772 1.54-1.003 2.22-1.003 1.049 0 1.841.556 1.841.556-2.83 1.51-3.414 3.928-5.03 4.474a2.461 2.461 0 0 1-.82.135c-1.188 0-2.34-.77-2.732-1.649 0 0 2.179-.133 4.521-2.512m-1.79 5.128c.39 0 .772-.058 1.132-.182 1.016-.337 1.66-1.142 2.342-1.982.697-.859 1.479-1.828 2.837-2.55l1.397-.75-1.297-.912c-.11-.068-1.083-.726-2.4-.726-1.083 0-2.085.444-2.915 1.289-2.014 2.056-3.82 2.223-3.886 2.224l-1.407.082.579 1.291c.58 1.285 2.104 2.215 3.619 2.215M13.868 38.746c-.151-3.655.787-6.618 2.256-9.061-.82 2.543-.708 5.658 2.082 8.567 0 0-5.547-6.646 2.209-13.46 3.1-2.592 6.496-4.193 8.243-5.327-6.314 2.06-9.397-.207-9.397-.207 2.015 1.748 4.626 1.718 6.245 1.465-.437.214-.898.438-1.386.703-5.327 2.892-10.11 7.65-10.93 14.24v-.05c-1.236 6.472-3.99 8.132-3.99 8.132 2.19-1.08 3.57-3.95 3.906-4.981.367 5.687 3.142 9.633 6.387 13.433 1.683 1.97 2.277 3.885 2.277 3.885s-.33-2.17-1.791-3.935c-3.023-3.638-5.9-8.168-6.111-13.404M38.618 25.413v1.307c.45-.548 1.32-.437 1.32-.437v1.884s-.03.927-.358 1.328h1.884c-.325-.401-.358-1.328-.358-1.328v-1.884s.873-.111 1.32.437v-1.307h-3.808zM37.808 17.663c.604.478.95.558.962.565l.236.11v-1.23l-2.215-.932s.02.713 1.017 1.487M43.075 17.663c1-.774 1.02-1.487 1.02-1.487l-2.215.931v1.23l.234-.109c.012-.007.359-.087.96-.565" fill="#1D1C1B"/><path d="M40.44 14.386l-5.335-2.107c.454-1.075 2.546-1.988 5.335-1.991 2.793.003 4.885.916 5.337 1.99l-5.337 2.108zm3.978 6.604l-3.586 1.889v-7.652l4.866-1.652-1.28 7.415zm2.221 2.03l1.64.953h.023l.412.24a4.836 4.836 0 0 0-2.227 1.327c-.022.019-.04.04-.065.064a8.713 8.713 0 0 0-.4.463c-.025.03-.05.063-.077.098a7.571 7.571 0 0 0-.36.505l-.062.089c-.135.202-.266.419-.395.643-1.168 2.01-3.03 3.214-4.688 3.217-1.655-.003-3.519-1.206-4.685-3.217-.127-.218-.255-.43-.39-.634-.027-.04-.05-.078-.076-.111-.114-.168-.23-.331-.346-.485-.03-.042-.058-.074-.087-.111a9.663 9.663 0 0 0-.389-.452c-.028-.022-.047-.05-.07-.073a4.838 4.838 0 0 0-2.23-1.323l.416-.24h.02l1.642-.952 1.685-.966 4.502 2.45.008-.01.013.01 4.501-2.45 1.685.966zm6.47 6.807c-.368.969-.672 2.018-.672 3.06l.003 6.736c-1.407-.236-1.573-1.752-1.579-1.817l-.026-.31-.303-.025c-.612-.06-1.017-.317-1.359-.65-.69-.69-.69-1.808-.69-1.818-.01.057-.759 1.108.111 2.255.366.483.897.78 1.583.897.161.84.787 2.028 2.263 2.208v3.296h-4.152c-1.914-1.065-1.103-2.94-1.066-3.02l.162-.356-.366-.138c-2.074-.77-1.502-2.837-1.475-2.927l.084-.301-.283-.134c-1.71-.794-1.48-2.93-1.457-3.021-.527.428-.717 1.298-.354 2.152-.196.225-.459.496-.748.794a2.325 2.325 0 0 1-1.828-2.155l-.004-.251-.233-.09c-.692-.257-1.167-.642-1.402-1.158-.263-.571-.17-1.171-.098-1.46.203.047.405.079.598.095.2.02.404.034.61.034h.028c.205 0 .408-.013.608-.034 1.105-.11 2.341-.584 3.63-1.862h8.414zM47.92 59.173l.464-2.415c.024-.143.054-.31.074-.448.132.055.27.099.42.128.173.033.332.05.477.05.708 0 1.121-.373 1.395-.69l.355-.415-.29-.454a43.922 43.922 0 0 0-1.164-1.76 9.612 9.612 0 0 1-.284-.42c-.563-.841-1.267-1.896-2.68-1.896l-.126.004c-.232.014-.432.06-.594.12a3.227 3.227 0 0 0-1.378-.314c-.585 0-1.075.16-1.403.272-.094.028-.178.058-.244.07l-2.64-.26c-.033-.006-.14-.07-.272-.225v-.013l.571-.23c-.16-1.902-1.988-3.072-3.006-3.468a1.076 1.076 0 0 0-.296-.536l-.567-.538-.499.598-.245.305-3.697-1.52 2.405 3.02-.949 1.438c-.347.369.036.739.036.739l.981.675 1.016-.38c.035 0 .066.01.101.013-.05.155-.114.76-.156.93l-1.764-.347-1.854 1.047a2.193 2.193 0 0 0-.728 2.649l.205.45.292.635.65-.27a.06.06 0 0 0 .023-.01c-.233.745-.138 1.454.277 1.917l.394.495.523.662.576-.618c.168-.168.718-.783.886-1.31l.125-.401-.28-.31-.047-.055.316-.52 2.302.542.52.119.274-.455.15-.247c.03-.053.035-.061.142-.061.082 0 .163.008.251.028.87.164 1.67.246 2.381.246.69 0 1.103-.027 1.594-.19 0 0 1.236 1.404 1.278 1.458l-.757 2.337-.033.14c-1.435.117-2.132.43-2.976 1.274-1.225-1.216-2.093-1.344-5.386-1.344-3.942 0-6.614-2.311-6.614-6.003v-9.024H52.44l.005 9.024c0 2.992-1.757 5.08-4.525 5.762zM33.141 54.07l.125.312c-.083.273-1.019.658-1.019.658l-.202-.443a1.471 1.471 0 0 1 .483-1.754l1.518-.925 1.61.342c-.03.51.275.893.275.893l-1.686-.325-1.009.698c-.172.119-.184.339-.095.544zm14.526 2.55l-.518 2.7c-.332.046-.68.07-1.04.085l.546-2.595c.162-.77-1.908-1.011-2.93-2.527-.5.56-1.44.73-2.386.73-.862 0-1.723-.138-2.247-.241a2.359 2.359 0 0 0-.385-.036c-.302 0-.578.094-.769.413l-.15.254-2.82-.665-.703 1.163c-.098.189-.106.346.054.523l.19.208c-.13.41-.718 1.032-.718 1.032l-.419-.524c-.332-.37-.278-1.05.068-1.68l1.12-1.888 2.39.345-.372-.846c-.499-1.12.262-2.543.343-3.364-.028.248-.256.304-.52.304-.24 0-.51-.046-.69-.046-.07 0-.13.007-.162.032l-.648.392-.51-.451c-.062-.087-.08-.29.068-.442l1.182-1.327-1.396-1.631 1.955.982.598-.724c.164.16.092.582.092.582.61.014 2.322.96 2.413 3.17.005.068.005.144.005.217 0 0 .016.027.046.072.12.167.455.593.878.633l2.703.267h.011c.296 0 .886-.347 1.643-.347.413 0 .871.104 1.36.412 0 0 .247-.194.645-.214.03-.004.065-.004.093-.004 1.212 0 1.716 1.096 2.367 2.005a54.104 54.104 0 0 1 1.143 1.723c-.24.286-.465.446-.842.446a1.76 1.76 0 0 1-.349-.035c-1.3-.24-1.487-2.912-2.229-3.124a.49.49 0 0 0-.118-.015c-.239 0-.343.213-.343.213.34.912.14 1.279.506 1.982.272.52.757.949.956 1.152 0 0-.054.394-.11.689zm-2.489 2.802c-.364 0-.7.005-1 .017l.791-2.466c.124-.341-.5-.78-.76-1.166.39.246 1.401.782 1.887.996-.049.08-.918 2.619-.918 2.619zM33.405 37.2l.113-4.287.962-1.018.604 1.265-1.19 4.115-.489-.075zm.692 1.328c.157.33.44.55.64.675-.008.31-.037.789-.119 1.214a2.91 2.91 0 0 1-.069.268c-.014.055-.03.1-.04.136-.296 0-.872-.036-1.345-.208-.523-.193-1.303-1.152-1.123-2.21.226-.138.75-.432 1.241-.432.377 0 .635.177.815.557zM45.24 39.68c-.739.545-2.645 1.937-3.337 2.42l-6.655-1.195.046-.178c.087-.346.177-.817.181-1.371l5.594.089.107-.108c.085-.085 1.857-1.798 2.76-2.782.215.27.483.526.836.752-.12.655-.069 1.587.468 2.373zm-9.049-9.854c.8.795 1.583 1.29 2.327 1.56-.096.385-.223 1.177.135 1.966.293.637.824 1.127 1.592 1.454a3.01 3.01 0 0 0 1.957 2.49c-.603.608-1.189 1.182-1.426 1.413l-5.582-.09c-.126-.062-.343-.205-.439-.406-.01-.028-.029-.044-.04-.071l.91.147a.562.562 0 0 0 .058.002.358.358 0 0 0 .358-.302.365.365 0 0 0-.3-.418l-1.122-.177 1.243-4.294-1.178-2.48-1.886 1.996-.116 4.465-1.268-.201c-.196-.038-.383.105-.418.303a.37.37 0 0 0 .303.418l.532.08c-.19.109-.316.196-.33.207l-.108.076-.03.132c-.309 1.254.39 2.442 1.143 2.975l-.027.158a.704.704 0 0 0 .13.538.7.7 0 0 0 .583.3.714.714 0 0 0 .692-.556c.28.034.537.04.713.04h.15l7.323 1.324.125-.083c.583-.407 2.808-2.028 3.537-2.566.201.173.425.329.696.459-.237.792-.25 2.01.682 2.973H28.445V32.888c0-1.043-.305-2.092-.666-3.061h8.411zm-1.009-16.252l4.87 1.652v7.652l-3.586-1.89-1.284-7.414zm11.882-.923c0-1.867-3.143-3.547-6.612-3.547h-.019c-3.469 0-6.612 1.68-6.612 3.547l.07.459 1.384 7.952-1.39.807-3.6 2.103h.012s-.81.415-1.185.67c-1.37.953-1.662 2.343-.866 2.916.196-1.132 1.091-2.316 2.768-2.316 1.207 0 2.128.624 2.87 1.558.192.235.373.488.542.758.208.342.418.643.625.93h-9.273c.682 1.37 1.33 2.822 1.33 4.399V53.41c0 4.969 3.82 7.339 7.952 7.339 3.194 0 3.624-.146 5.386 1.61 1.754-1.756 2.185-1.61 5.381-1.61 4.135 0 7.95-2.37 7.95-7.34V32.889c0-1.577.647-3.028 1.332-4.398h-9.276c.207-.288.416-.59.624-.931.172-.27.352-.523.54-.758.75-.938 1.667-1.558 2.875-1.558 1.675 0 2.57 1.184 2.768 2.316.796-.573.508-1.963-.87-2.915-.37-.256-1.18-.671-1.18-.671h.012l-3.605-2.103-1.386-.807 1.386-7.952.067-.46z" fill="#1D1C1B"/></g></svg>